<svg width="36" height="36" viewBox="0 0 36 36" fill="none" xmlns="http://www.w3.org/2000/svg">
<circle cx="18" cy="18" r="18" fill="#D9D9D9"/>
<circle cx="18" cy="18" r="18" fill="white"/>
<path d="M14.7148 12.3514C14.529 12.3244 14.3395 12.3618 14.1778 12.4574H14.1638C13.7888 12.6774 13.4508 12.9544 13.1628 13.2804C12.9228 13.5574 12.7928 13.8374 12.7588 14.1074C12.7388 14.2674 12.7528 14.4294 12.7998 14.5824L12.8178 14.5924C13.0878 15.3854 13.4398 16.1484 13.8698 16.8664C14.4243 17.8749 15.1066 18.8076 15.8998 19.6414L15.9238 19.6754L15.9618 19.7034L15.9848 19.7304L16.0128 19.7544C16.8496 20.55 17.7845 21.2356 18.7948 21.7944C19.9498 22.4234 20.6508 22.7204 21.0718 22.8444V22.8504C21.1948 22.8884 21.3068 22.9054 21.4198 22.9054C21.7784 22.8789 22.1178 22.7332 22.3838 22.4914C22.7088 22.2034 22.9838 21.8644 23.1978 21.4874V21.4804C23.3988 21.1004 23.3308 20.7424 23.0408 20.4994C22.4583 19.9904 21.8285 19.5384 21.1598 19.1494C20.7118 18.9064 20.2568 19.0534 20.0728 19.2994L19.6798 19.7954C19.4778 20.0414 19.1118 20.0074 19.1118 20.0074L19.1018 20.0134C16.3708 19.3164 15.6418 16.5514 15.6418 16.5514C15.6418 16.5514 15.6078 16.1754 15.8608 15.9834L16.3528 15.5874C16.5888 15.3954 16.7528 14.9414 16.4998 14.4934C16.1135 13.8242 15.6623 13.1945 15.1528 12.6134C15.0417 12.4767 14.8859 12.3835 14.7128 12.3504L14.7148 12.3514ZM19.3298 11.1494C19.1972 11.1494 19.0701 11.2021 18.9763 11.2959C18.8825 11.3896 18.8298 11.5168 18.8298 11.6494C18.8298 11.782 18.8825 11.9092 18.9763 12.003C19.0701 12.0967 19.1972 12.1494 19.3298 12.1494C20.5938 12.1494 21.6438 12.5624 22.4748 13.3544C22.9018 13.7874 23.2348 14.3004 23.4528 14.8624C23.6718 15.4254 23.7718 16.0264 23.7458 16.6284C23.7403 16.761 23.7876 16.8904 23.8774 16.9881C23.9673 17.0858 24.0922 17.1438 24.2248 17.1494C24.3575 17.155 24.4868 17.1076 24.5846 17.0178C24.6823 16.928 24.7403 16.803 24.7458 16.6704C24.7769 15.9299 24.6539 15.191 24.3848 14.5004C24.1146 13.8065 23.7048 13.1755 23.1808 12.6464L23.1708 12.6364C22.1398 11.6514 20.8358 11.1494 19.3298 11.1494Z" fill="#00954D"/>
<path d="M19.2949 12.794C19.1623 12.794 19.0351 12.8466 18.9414 12.9404C18.8476 13.0342 18.7949 13.1614 18.7949 13.294C18.7949 13.4266 18.8476 13.5538 18.9414 13.6475C19.0351 13.7413 19.1623 13.794 19.2949 13.794H19.3119C20.2239 13.859 20.8879 14.163 21.3529 14.662C21.8299 15.176 22.0769 15.815 22.0579 16.605C22.0549 16.7376 22.1046 16.866 22.1962 16.9619C22.2878 17.0578 22.4138 17.1134 22.5464 17.1165C22.679 17.1195 22.8074 17.0698 22.9033 16.9782C22.9993 16.8865 23.0549 16.7606 23.0579 16.628C23.0819 15.591 22.7479 14.696 22.0859 13.982V13.98C21.4089 13.254 20.4799 12.87 19.3619 12.795L19.3449 12.793L19.2949 12.794Z" fill="#00954D"/>
<path d="M19.2754 14.4687C19.2085 14.4628 19.1411 14.4705 19.0772 14.4912C19.0133 14.5119 18.9542 14.5453 18.9035 14.5894C18.8528 14.6334 18.8115 14.6873 18.782 14.7476C18.7526 14.808 18.7356 14.8737 18.7321 14.9408C18.7286 15.0079 18.7387 15.075 18.7617 15.1381C18.7847 15.2012 18.8202 15.259 18.8661 15.3081C18.9119 15.3572 18.9672 15.3965 19.0286 15.4238C19.09 15.451 19.1562 15.4657 19.2234 15.4667C19.6414 15.4887 19.9084 15.6147 20.0764 15.7837C20.2454 15.9537 20.3714 16.2267 20.3944 16.6537C20.3956 16.7208 20.4104 16.787 20.4377 16.8483C20.4651 16.9096 20.5045 16.9647 20.5536 17.0104C20.6028 17.0561 20.6606 17.0915 20.7237 17.1144C20.7868 17.1373 20.8538 17.1473 20.9208 17.1437C20.9878 17.1402 21.0535 17.1232 21.1138 17.0937C21.1741 17.0642 21.2278 17.023 21.2718 16.9723C21.3158 16.9216 21.3492 16.8626 21.3699 16.7988C21.3906 16.7349 21.3983 16.6676 21.3924 16.6007C21.3604 16.0007 21.1724 15.4707 20.7874 15.0807C20.4004 14.6907 19.8734 14.5007 19.2754 14.4687Z" fill="#00954D"/>
<path fill-rule="evenodd" clip-rule="evenodd" d="M13.8168 8.53347C16.9989 7.82218 20.2987 7.82218 23.4808 8.53347L23.8198 8.60847C24.75 8.81642 25.6043 9.2782 26.2879 9.94249C26.9714 10.6068 27.4574 11.4476 27.6918 12.3715C28.4995 15.5544 28.4995 18.8886 27.6918 22.0715C27.4574 22.9954 26.9714 23.8362 26.2879 24.5004C25.6043 25.1647 24.75 25.6265 23.8198 25.8345L23.4798 25.9095C21.4868 26.3552 19.4418 26.5231 17.4028 26.4085L14.7498 28.7825C14.6498 28.872 14.5276 28.9331 14.3959 28.9593C14.2642 28.9855 14.1279 28.9759 14.0013 28.9314C13.8746 28.887 13.7621 28.8094 13.6757 28.7066C13.5893 28.6039 13.532 28.4799 13.5098 28.3475L13.0708 25.7255C12.229 25.4635 11.4684 24.9901 10.8618 24.3504C10.2551 23.7106 9.82271 22.926 9.60581 22.0715C8.79806 18.8886 8.79806 15.5544 9.60581 12.3715C9.84023 11.4476 10.3262 10.6068 11.0097 9.94249C11.6933 9.2782 12.5476 8.81642 13.4778 8.60847L13.8168 8.53347ZM23.1538 9.99647C20.1871 9.33328 17.1105 9.33328 14.1438 9.99647L13.8038 10.0725C13.1445 10.2201 12.5391 10.5476 12.0547 11.0186C11.5703 11.4896 11.2259 12.0856 11.0598 12.7405C10.3135 15.6812 10.3135 18.7617 11.0598 21.7025C11.226 22.3575 11.5705 22.9536 12.0551 23.4246C12.5397 23.8956 13.1453 24.223 13.8048 24.3705L13.8948 24.3905C14.0404 24.423 14.173 24.4983 14.2756 24.6066C14.3782 24.7149 14.4462 24.8513 14.4708 24.9985L14.7648 26.7565L16.6368 25.0815C16.7116 25.0144 16.799 24.963 16.894 24.9304C16.989 24.8977 17.0896 24.8845 17.1898 24.8915C19.1889 25.0333 21.1979 24.8834 23.1538 24.4465L23.4928 24.3705C24.1523 24.223 24.7579 23.8956 25.2425 23.4246C25.7271 22.9536 26.0716 22.3575 26.2378 21.7025C26.9838 18.7625 26.9838 15.6815 26.2378 12.7405C26.0716 12.0855 25.7271 11.4894 25.2425 11.0184C24.7579 10.5474 24.1523 10.22 23.4928 10.0725L23.1538 9.99647Z" fill="#00954D"/>
</svg>
