<svg width="36" height="36" viewBox="0 0 36 36" fill="none" xmlns="http://www.w3.org/2000/svg">
<circle cx="18" cy="18" r="18" fill="#00954D"/>
<path fill-rule="evenodd" clip-rule="evenodd" d="M23.2632 24.951V24.9492L23.2795 24.9097L26 11.0327V10.9886C26 10.6426 25.873 10.3407 25.599 10.1599C25.3587 10.0011 25.082 9.99007 24.8879 10.0048C24.7072 10.0213 24.5289 10.0582 24.3563 10.1149C24.2827 10.1389 24.2101 10.1658 24.1386 10.1957L24.1268 10.2002L8.95951 16.22L8.95498 16.2219C8.90887 16.2378 8.86373 16.2565 8.81982 16.2779C8.71195 16.3269 8.60845 16.3852 8.51048 16.4522C8.31545 16.5881 7.94443 16.9075 8.00703 17.4141C8.05873 17.8344 8.34448 18.1006 8.5377 18.2392C8.65175 18.32 8.77436 18.3878 8.90327 18.4411L8.9323 18.4539L8.94137 18.4567L8.94772 18.4595L11.602 19.3635C11.5929 19.5314 11.6092 19.7031 11.6537 19.8729L12.9826 24.9749C13.0552 25.253 13.2121 25.5011 13.4312 25.6844C13.6504 25.8676 13.9207 25.9769 14.2044 25.9967C14.488 26.0166 14.7706 25.946 15.0126 25.795C15.2546 25.644 15.4437 25.4201 15.5535 25.1547L17.629 22.9098L21.1931 25.6742L21.2439 25.6962C21.5677 25.8394 21.8698 25.8844 22.1465 25.8468C22.4232 25.8082 22.6427 25.6907 22.8078 25.5577C22.9988 25.401 23.151 25.2015 23.2523 24.9749L23.2596 24.9593L23.2623 24.9538L23.2632 24.951ZM12.969 19.5223C12.9543 19.4656 12.9578 19.4058 12.979 19.3513C13.0002 19.2968 13.038 19.2506 13.087 19.2194L22.0866 13.4373C22.0866 13.4373 22.6164 13.1115 22.5973 13.4373C22.5973 13.4373 22.6917 13.4942 22.4078 13.7613C22.1392 14.0155 15.9934 20.0188 15.3711 20.6264C15.3365 20.6604 15.3123 20.7037 15.3013 20.7512L14.298 24.6243L12.969 19.5223Z" fill="white"/>
</svg>
