<svg width="93" height="22" viewBox="0 0 93 22" fill="none" xmlns="http://www.w3.org/2000/svg">
<mask id="mask0_181_11" style="mask-type:alpha" maskUnits="userSpaceOnUse" x="0" y="0" width="93" height="22">
<rect width="93" height="22" fill="white"/>
</mask>
<g mask="url(#mask0_181_11)">
<g filter="url(#filter0_d_181_11)">
<path fill-rule="evenodd" clip-rule="evenodd" d="M48.702 17.7922C51.0242 19.2865 53.2386 22 56 22H88C90.7614 22 93 24.2386 93 27V111C93 113.761 90.7614 116 88 116H5C2.23858 116 0 113.761 0 111V27C0 24.2386 2.23858 22 5 22H36C38.7614 22 40.9758 19.2865 43.298 17.7922C44.0772 17.2909 45.0046 17 46 17C46.9954 17 47.9228 17.2909 48.702 17.7922Z" fill="white"/>
</g>
</g>
<defs>
<filter id="filter0_d_181_11" x="-15" y="2" width="123" height="129" filterUnits="userSpaceOnUse" color-interpolation-filters="sRGB">
<feFlood flood-opacity="0" result="BackgroundImageFix"/>
<feColorMatrix in="SourceAlpha" type="matrix" values="0 0 0 0 0 0 0 0 0 0 0 0 0 0 0 0 0 0 127 0" result="hardAlpha"/>
<feOffset/>
<feGaussianBlur stdDeviation="7.5"/>
<feComposite in2="hardAlpha" operator="out"/>
<feColorMatrix type="matrix" values="0 0 0 0 0.341176 0 0 0 0 0.341176 0 0 0 0 0.337255 0 0 0 0.1 0"/>
<feBlend mode="normal" in2="BackgroundImageFix" result="effect1_dropShadow_181_11"/>
<feBlend mode="normal" in="SourceGraphic" in2="effect1_dropShadow_181_11" result="shape"/>
</filter>
</defs>
</svg>
