<svg width="22" height="22" viewBox="0 0 22 22" fill="none" xmlns="http://www.w3.org/2000/svg">
<path d="M16.4751 14.5832C16.2712 14.3786 16.0288 14.2162 15.762 14.1054C15.4952 13.9946 15.2091 13.9376 14.9202 13.9376C14.6313 13.9376 14.3452 13.9946 14.0784 14.1054C13.8116 14.2162 13.5692 14.3786 13.3653 14.5832L12.3043 15.6442C11.1097 14.886 10.0029 13.9977 9.00424 12.9954C8.00196 11.9967 7.11358 10.8899 6.35541 9.69533L7.41641 8.63434C7.62105 8.4304 7.78343 8.18807 7.89423 7.92125C8.00502 7.65442 8.06205 7.36835 8.06205 7.07944C8.06205 6.79052 8.00502 6.50445 7.89423 6.23763C7.78343 5.9708 7.62105 5.72847 7.41641 5.52453L5.34564 3.46109C5.14458 3.25576 4.9043 3.09295 4.63907 2.98233C4.37384 2.87172 4.08908 2.81555 3.80171 2.81717C3.51231 2.81646 3.22562 2.87299 2.95814 2.9835C2.69066 3.09401 2.44767 3.25631 2.24315 3.46109L1.24801 4.44891C0.773693 4.95889 0.419687 5.56869 0.212021 6.23348C0.00435426 6.89826 -0.0516943 7.60114 0.047995 8.29043C0.282145 11.0344 2.08217 14.3344 4.85539 17.115C7.62861 19.8955 10.9652 21.6882 13.7092 21.9516C13.9139 21.9626 14.1191 21.9626 14.3238 21.9516C14.9145 21.9764 15.5042 21.8831 16.0583 21.677C16.6124 21.4709 17.1198 21.1563 17.5507 20.7516L18.5385 19.7565C18.7433 19.552 18.9056 19.309 19.0161 19.0415C19.1266 18.774 19.1832 18.4873 19.1825 18.1979C19.1841 17.9105 19.1279 17.6258 19.0173 17.3606C18.9067 17.0953 18.7439 16.855 18.5385 16.654L16.4751 14.5832Z" fill="#212121"/>
<path d="M16.4751 14.5832C16.2712 14.3786 16.0288 14.2162 15.762 14.1054C15.4952 13.9946 15.2091 13.9376 14.9202 13.9376C14.6313 13.9376 14.3452 13.9946 14.0784 14.1054C13.8116 14.2162 13.5692 14.3786 13.3653 14.5832L12.3043 15.6442C11.1097 14.886 10.0029 13.9977 9.00424 12.9954C8.00196 11.9967 7.11358 10.8899 6.35541 9.69533L7.41641 8.63434C7.62105 8.4304 7.78343 8.18807 7.89423 7.92125C8.00502 7.65442 8.06205 7.36835 8.06205 7.07944C8.06205 6.79052 8.00502 6.50445 7.89423 6.23763C7.78343 5.9708 7.62105 5.72847 7.41641 5.52453L5.34564 3.46109C5.14458 3.25576 4.9043 3.09295 4.63907 2.98233C4.37384 2.87172 4.08908 2.81555 3.80171 2.81717C3.51231 2.81646 3.22562 2.87299 2.95814 2.9835C2.69066 3.09401 2.44767 3.25631 2.24315 3.46109L1.24801 4.44891C0.773693 4.95889 0.419687 5.56869 0.212021 6.23348C0.00435426 6.89826 -0.0516943 7.60114 0.047995 8.29043C0.282145 11.0344 2.08217 14.3344 4.85539 17.115C7.62861 19.8955 10.9652 21.6882 13.7092 21.9516C13.9139 21.9626 14.1191 21.9626 14.3238 21.9516C14.9145 21.9764 15.5042 21.8831 16.0583 21.677C16.6124 21.4709 17.1198 21.1563 17.5507 20.7516L18.5385 19.7565C18.7433 19.552 18.9056 19.309 19.0161 19.0415C19.1266 18.774 19.1832 18.4873 19.1825 18.1979C19.1841 17.9105 19.1279 17.6258 19.0173 17.3606C18.9067 17.0953 18.7439 16.855 18.5385 16.654L16.4751 14.5832Z" fill="url(#paint0_linear_48_181)"/>
<path d="M16.4751 14.5832C16.2712 14.3786 16.0288 14.2162 15.762 14.1054C15.4952 13.9946 15.2091 13.9376 14.9202 13.9376C14.6313 13.9376 14.3452 13.9946 14.0784 14.1054C13.8116 14.2162 13.5692 14.3786 13.3653 14.5832L12.3043 15.6442C11.1097 14.886 10.0029 13.9977 9.00424 12.9954C8.00196 11.9967 7.11358 10.8899 6.35541 9.69533L7.41641 8.63434C7.62105 8.4304 7.78343 8.18807 7.89423 7.92125C8.00502 7.65442 8.06205 7.36835 8.06205 7.07944C8.06205 6.79052 8.00502 6.50445 7.89423 6.23763C7.78343 5.9708 7.62105 5.72847 7.41641 5.52453L5.34564 3.46109C5.14458 3.25576 4.9043 3.09295 4.63907 2.98233C4.37384 2.87172 4.08908 2.81555 3.80171 2.81717C3.51231 2.81646 3.22562 2.87299 2.95814 2.9835C2.69066 3.09401 2.44767 3.25631 2.24315 3.46109L1.24801 4.44891C0.773693 4.95889 0.419687 5.56869 0.212021 6.23348C0.00435426 6.89826 -0.0516943 7.60114 0.047995 8.29043C0.282145 11.0344 2.08217 14.3344 4.85539 17.115C7.62861 19.8955 10.9652 21.6882 13.7092 21.9516C13.9139 21.9626 14.1191 21.9626 14.3238 21.9516C14.9145 21.9764 15.5042 21.8831 16.0583 21.677C16.6124 21.4709 17.1198 21.1563 17.5507 20.7516L18.5385 19.7565C18.7433 19.552 18.9056 19.309 19.0161 19.0415C19.1266 18.774 19.1832 18.4873 19.1825 18.1979C19.1841 17.9105 19.1279 17.6258 19.0173 17.3606C18.9067 17.0953 18.7439 16.855 18.5385 16.654L16.4751 14.5832Z" fill="url(#paint1_linear_48_181)"/>
<path d="M18.7799 3.21227C17.763 2.1915 16.5541 1.38212 15.2229 0.830803C13.8917 0.279484 12.4646 -0.00286954 11.0237 2.19856e-05C10.8296 2.19856e-05 10.6435 0.0771136 10.5063 0.214338C10.3691 0.351561 10.292 0.537677 10.292 0.731741C10.292 0.925805 10.3691 1.11192 10.5063 1.24914C10.6435 1.38637 10.8296 1.46346 11.0237 1.46346C12.2797 1.46342 13.5232 1.7121 14.6826 2.19517C15.842 2.67823 16.8942 3.38611 17.7786 4.27796C18.6629 5.16981 19.3619 6.22796 19.8352 7.39136C20.3085 8.55476 20.5467 9.80036 20.5361 11.0563C20.5361 11.2504 20.6132 11.4365 20.7504 11.5737C20.8876 11.7109 21.0737 11.788 21.2678 11.788C21.4618 11.788 21.648 11.7109 21.7852 11.5737C21.9224 11.4365 21.9995 11.2504 21.9995 11.0563C22.0135 9.60013 21.7359 8.15589 21.1829 6.80872C20.63 5.46154 19.8129 4.2387 18.7799 3.21227Z" fill="#212121"/>
<path d="M18.7799 3.21227C17.763 2.1915 16.5541 1.38212 15.2229 0.830803C13.8917 0.279484 12.4646 -0.00286954 11.0237 2.19856e-05C10.8296 2.19856e-05 10.6435 0.0771136 10.5063 0.214338C10.3691 0.351561 10.292 0.537677 10.292 0.731741C10.292 0.925805 10.3691 1.11192 10.5063 1.24914C10.6435 1.38637 10.8296 1.46346 11.0237 1.46346C12.2797 1.46342 13.5232 1.7121 14.6826 2.19517C15.842 2.67823 16.8942 3.38611 17.7786 4.27796C18.6629 5.16981 19.3619 6.22796 19.8352 7.39136C20.3085 8.55476 20.5467 9.80036 20.5361 11.0563C20.5361 11.2504 20.6132 11.4365 20.7504 11.5737C20.8876 11.7109 21.0737 11.788 21.2678 11.788C21.4618 11.788 21.648 11.7109 21.7852 11.5737C21.9224 11.4365 21.9995 11.2504 21.9995 11.0563C22.0135 9.60013 21.7359 8.15589 21.1829 6.80872C20.63 5.46154 19.8129 4.2387 18.7799 3.21227Z" fill="url(#paint2_linear_48_181)"/>
<path d="M18.7799 3.21227C17.763 2.1915 16.5541 1.38212 15.2229 0.830803C13.8917 0.279484 12.4646 -0.00286954 11.0237 2.19856e-05C10.8296 2.19856e-05 10.6435 0.0771136 10.5063 0.214338C10.3691 0.351561 10.292 0.537677 10.292 0.731741C10.292 0.925805 10.3691 1.11192 10.5063 1.24914C10.6435 1.38637 10.8296 1.46346 11.0237 1.46346C12.2797 1.46342 13.5232 1.7121 14.6826 2.19517C15.842 2.67823 16.8942 3.38611 17.7786 4.27796C18.6629 5.16981 19.3619 6.22796 19.8352 7.39136C20.3085 8.55476 20.5467 9.80036 20.5361 11.0563C20.5361 11.2504 20.6132 11.4365 20.7504 11.5737C20.8876 11.7109 21.0737 11.788 21.2678 11.788C21.4618 11.788 21.648 11.7109 21.7852 11.5737C21.9224 11.4365 21.9995 11.2504 21.9995 11.0563C22.0135 9.60013 21.7359 8.15589 21.1829 6.80872C20.63 5.46154 19.8129 4.2387 18.7799 3.21227Z" fill="url(#paint3_linear_48_181)"/>
<path d="M14.616 7.39773C15.0312 7.81048 15.3597 8.30213 15.5821 8.84373C15.8046 9.38534 15.9164 9.96596 15.9111 10.5514C15.9111 10.7455 15.9882 10.9316 16.1254 11.0688C16.2626 11.2061 16.4488 11.2832 16.6428 11.2832C16.8369 11.2832 17.023 11.2061 17.1602 11.0688C17.2974 10.9316 17.3745 10.7455 17.3745 10.5514C17.3842 9.77658 17.24 9.0075 16.9501 8.28883C16.6603 7.57015 16.2306 6.91617 15.6861 6.36483C15.1416 5.81348 14.493 5.37574 13.7779 5.077C13.0629 4.77825 12.2957 4.62445 11.5208 4.62451C11.3267 4.62451 11.1406 4.7016 11.0034 4.83883C10.8662 4.97605 10.7891 5.16217 10.7891 5.35623C10.7891 5.55029 10.8662 5.73641 11.0034 5.87363C11.1406 6.01086 11.3267 6.08795 11.5208 6.08795C12.0974 6.09229 12.6676 6.2102 13.1987 6.43494C13.7297 6.65967 14.2113 6.98683 14.616 7.39773Z" fill="#212121"/>
<path d="M14.616 7.39773C15.0312 7.81048 15.3597 8.30213 15.5821 8.84373C15.8046 9.38534 15.9164 9.96596 15.9111 10.5514C15.9111 10.7455 15.9882 10.9316 16.1254 11.0688C16.2626 11.2061 16.4488 11.2832 16.6428 11.2832C16.8369 11.2832 17.023 11.2061 17.1602 11.0688C17.2974 10.9316 17.3745 10.7455 17.3745 10.5514C17.3842 9.77658 17.24 9.0075 16.9501 8.28883C16.6603 7.57015 16.2306 6.91617 15.6861 6.36483C15.1416 5.81348 14.493 5.37574 13.7779 5.077C13.0629 4.77825 12.2957 4.62445 11.5208 4.62451C11.3267 4.62451 11.1406 4.7016 11.0034 4.83883C10.8662 4.97605 10.7891 5.16217 10.7891 5.35623C10.7891 5.55029 10.8662 5.73641 11.0034 5.87363C11.1406 6.01086 11.3267 6.08795 11.5208 6.08795C12.0974 6.09229 12.6676 6.2102 13.1987 6.43494C13.7297 6.65967 14.2113 6.98683 14.616 7.39773Z" fill="url(#paint4_linear_48_181)"/>
<path d="M14.616 7.39773C15.0312 7.81048 15.3597 8.30213 15.5821 8.84373C15.8046 9.38534 15.9164 9.96596 15.9111 10.5514C15.9111 10.7455 15.9882 10.9316 16.1254 11.0688C16.2626 11.2061 16.4488 11.2832 16.6428 11.2832C16.8369 11.2832 17.023 11.2061 17.1602 11.0688C17.2974 10.9316 17.3745 10.7455 17.3745 10.5514C17.3842 9.77658 17.24 9.0075 16.9501 8.28883C16.6603 7.57015 16.2306 6.91617 15.6861 6.36483C15.1416 5.81348 14.493 5.37574 13.7779 5.077C13.0629 4.77825 12.2957 4.62445 11.5208 4.62451C11.3267 4.62451 11.1406 4.7016 11.0034 4.83883C10.8662 4.97605 10.7891 5.16217 10.7891 5.35623C10.7891 5.55029 10.8662 5.73641 11.0034 5.87363C11.1406 6.01086 11.3267 6.08795 11.5208 6.08795C12.0974 6.09229 12.6676 6.2102 13.1987 6.43494C13.7297 6.65967 14.2113 6.98683 14.616 7.39773Z" fill="url(#paint5_linear_48_181)"/>
<defs>
<linearGradient id="paint0_linear_48_181" x1="0" y1="2.81714" x2="19.9238" y2="3.62259" gradientUnits="userSpaceOnUse">
<stop stop-color="#0ED475"/>
<stop offset="1" stop-color="#00BF63"/>
</linearGradient>
<linearGradient id="paint1_linear_48_181" x1="19.1824" y1="21.1232" x2="-1.30357" y2="3.24804" gradientUnits="userSpaceOnUse">
<stop stop-color="#00954D"/>
<stop offset="1" stop-color="#00A656"/>
</linearGradient>
<linearGradient id="paint2_linear_48_181" x1="10.292" y1="0" x2="22.4528" y2="0.487269" gradientUnits="userSpaceOnUse">
<stop stop-color="#0ED475"/>
<stop offset="1" stop-color="#00BF63"/>
</linearGradient>
<linearGradient id="paint3_linear_48_181" x1="22" y1="11.2728" x2="9.40042" y2="0.376285" gradientUnits="userSpaceOnUse">
<stop stop-color="#00954D"/>
<stop offset="1" stop-color="#00A656"/>
</linearGradient>
<linearGradient id="paint4_linear_48_181" x1="10.7891" y1="4.62451" x2="17.6298" y2="4.89747" gradientUnits="userSpaceOnUse">
<stop stop-color="#0ED475"/>
<stop offset="1" stop-color="#00BF63"/>
</linearGradient>
<linearGradient id="paint5_linear_48_181" x1="17.375" y1="10.9921" x2="10.2623" y2="4.86641" gradientUnits="userSpaceOnUse">
<stop stop-color="#00954D"/>
<stop offset="1" stop-color="#00A656"/>
</linearGradient>
</defs>
</svg>
