<svg width="16" height="16" viewBox="0 0 16 16" fill="none" xmlns="http://www.w3.org/2000/svg">
<path d="M14.3694 13.3099C14.2106 13.3092 14.053 13.2772 13.9059 13.2157C13.7587 13.1542 13.6248 13.0644 13.5119 12.9514C13.3989 12.8384 13.3091 12.7045 13.2475 12.5574C13.186 12.4102 13.154 12.2527 13.1534 12.0939L13.1104 4.77054L2.71799 15.163C2.49299 15.388 2.18677 15.5133 1.8667 15.5114C1.54662 15.5096 1.23891 15.3806 1.01125 15.1529C0.783601 14.9253 0.654651 14.6176 0.652774 14.2975C0.650896 13.9774 0.776244 13.6712 1.00124 13.4462L11.3937 3.0538L4.06892 3.00941C3.74829 3.00753 3.44005 2.87835 3.212 2.6503C2.98395 2.42225 2.85478 2.11401 2.85289 1.79338C2.85101 1.47275 2.97658 1.166 3.20197 0.940609C3.42736 0.715219 3.73411 0.589653 4.05474 0.591534L14.2951 0.651605C14.454 0.652262 14.6115 0.684266 14.7586 0.745785C14.9058 0.807303 15.0397 0.897124 15.1527 1.0101C15.2656 1.12307 15.3555 1.25698 15.417 1.40413C15.4785 1.55129 15.5105 1.7088 15.5112 1.86763L15.5712 12.108C15.5724 12.2669 15.5423 12.424 15.4825 12.5705C15.4227 12.7169 15.3344 12.8498 15.2228 12.9614C15.1111 13.0731 14.9783 13.1613 14.8318 13.2211C14.6854 13.2809 14.5282 13.3111 14.3694 13.3099Z" fill="white"/>
</svg>
