<svg width="16" height="16" viewBox="0 0 16 16" fill="none" xmlns="http://www.w3.org/2000/svg">
<path d="M14.4216 13.2738C14.263 13.2747 14.106 13.2443 13.9597 13.1843C13.8133 13.1243 13.6805 13.036 13.5688 12.9243C13.4571 12.8125 13.3687 12.6797 13.3087 12.5334C13.2487 12.387 13.2183 12.23 13.2192 12.0714L13.2487 4.7583L2.76744 15.2396C2.54051 15.4665 2.23346 15.5947 1.91383 15.596C1.5942 15.5973 1.28818 15.4716 1.06308 15.2465C0.837979 15.0214 0.712245 14.7154 0.713534 14.3957C0.714825 14.0761 0.843033 13.769 1.06996 13.5421L11.5513 3.06082L4.23674 3.08892C3.91655 3.09021 3.61 2.96426 3.38451 2.73877C3.15902 2.51328 3.03306 2.20672 3.03436 1.88654C3.03565 1.56635 3.16408 1.25877 3.3914 1.03145C3.61871 0.804138 3.9263 0.675707 4.24648 0.674415L14.4726 0.633151C14.6312 0.632236 14.7882 0.662641 14.9346 0.722622C15.0809 0.782603 15.2138 0.87098 15.3255 0.982686C15.4372 1.09439 15.5255 1.22723 15.5855 1.37358C15.6455 1.51993 15.6759 1.67692 15.675 1.83553L15.6337 12.0617C15.6334 12.2203 15.6017 12.3775 15.5405 12.5244C15.4794 12.6712 15.3899 12.8048 15.2773 12.9174C15.1647 13.03 15.0311 13.1194 14.8843 13.1806C14.7375 13.2418 14.5802 13.2734 14.4216 13.2738Z" fill="#212121"/>
</svg>
