<svg width="60" height="60" viewBox="0 0 60 60" fill="none" xmlns="http://www.w3.org/2000/svg">
<rect width="60" height="60" rx="7" fill="#00954D"/>
<path fill-rule="evenodd" clip-rule="evenodd" d="M47.3331 13.0846H40.8916L41.5671 14.2818C41.713 14.5413 41.6256 14.872 41.3721 15.0213L33.6054 19.6128C33.4104 19.7278 33.1733 19.7006 33.0087 19.5633L29.2911 16.6729L16.7031 25.5507L28.678 19.5513C28.8746 19.453 29.1008 19.4906 29.2568 19.6279L33.1405 23.0621L42.7161 17.4013C42.9688 17.2528 43.291 17.3414 43.4369 17.5994L43.4376 17.5986L44.1124 18.7958L45.7231 15.9398L45.7223 15.939L47.3331 13.0846ZM44.1131 12.0008H48.2208C48.3206 11.9952 48.4228 12.0176 48.5156 12.0727C48.7691 12.2229 48.8549 12.5551 48.7083 12.8139L46.6396 16.4821L46.6389 16.4813L44.5874 20.1199C44.5429 20.2126 44.472 20.2924 44.3783 20.3483C44.1248 20.4985 43.8011 20.4098 43.6545 20.1511L42.7855 18.6105L33.3691 24.1779C33.1764 24.3072 32.9159 24.2961 32.7334 24.1339L28.8293 20.6822L10.785 29.7213C10.5502 29.8539 10.2499 29.7852 10.0939 29.5544C9.92775 29.3084 9.98781 28.9706 10.2288 28.8004L29.0041 15.5588L29.0048 15.5596C29.1874 15.4302 29.4377 15.4286 29.625 15.574L33.3816 18.4947L40.3862 14.3537L39.5258 12.8282C39.4751 12.7452 39.4463 12.6477 39.4463 12.5431C39.4463 12.2436 39.6834 12.0016 39.9751 12.0016L44.1131 12.0008ZM11.0533 35.1194H14.4878C14.7811 35.1194 15.019 35.363 15.019 35.6632V42.3807C15.019 42.681 14.7811 42.9246 14.4878 42.9246H11.0533C10.76 42.9246 10.5221 42.681 10.5221 42.3807V35.6632C10.5221 35.363 10.76 35.1194 11.0533 35.1194ZM13.9566 36.2071H11.5845V41.8368H13.9566V36.2071ZM27.6523 27.5298H25.2802V41.836H27.6523V27.5298ZM24.749 26.442C24.4557 26.442 24.2178 26.6856 24.2178 26.9859V42.3799C24.2178 42.6802 24.4557 42.9238 24.749 42.9238H28.1835C28.4768 42.9238 28.7147 42.6802 28.7147 42.3799V26.9859C28.7147 26.6856 28.4768 26.442 28.1835 26.442H24.749ZM17.9012 30.984H21.3356C21.6289 30.984 21.8668 31.2275 21.8668 31.5278V42.3799C21.8668 42.6802 21.6289 42.9238 21.3356 42.9238H17.9012C17.6079 42.9238 17.37 42.6802 17.37 42.3799V31.5278C17.37 31.2275 17.6079 30.984 17.9012 30.984ZM20.8044 32.0717H18.4324V41.836H20.8044V32.0717ZM11.0533 44.7279H48.4688C48.7621 44.7279 49 44.9715 49 45.2718V47.4561C49 47.7564 48.7621 48 48.4688 48H11.0533C10.76 48 10.5221 47.7564 10.5221 47.4561V45.2718C10.5221 44.9715 10.76 44.7279 11.0533 44.7279ZM47.9376 45.8157H11.5845V46.9122H47.9376V45.8157ZM40.6202 30.5423C40.7668 30.2827 41.0913 30.1949 41.3441 30.345C41.5976 30.4952 41.6834 30.8274 41.5367 31.0862L40.1069 33.6211C39.9603 33.8807 39.6358 33.9685 39.3831 33.8184L35.6483 31.6101C35.3948 31.46 35.309 31.1277 35.4556 30.8689C35.6023 30.6094 35.9268 30.5215 36.1795 30.6717L39.4548 32.6076L40.6202 30.5423ZM40.1803 26.8038V27.3014C40.1803 27.6017 39.9423 27.8453 39.6491 27.8453C39.3558 27.8453 39.1179 27.6017 39.1179 27.3014V26.8038C38.3339 26.8693 37.5898 27.0802 36.9104 27.4084L37.153 27.8389C37.2996 28.0984 37.213 28.4299 36.9603 28.58C36.7068 28.7302 36.3831 28.6415 36.2364 28.3828L35.9931 27.9515C35.6779 28.1759 35.3831 28.4283 35.1124 28.7054C34.8418 28.9825 34.5953 29.2844 34.3761 29.6079L34.7957 29.8563C35.0492 30.0056 35.1366 30.3362 34.9907 30.5958C34.8449 30.8554 34.522 30.9448 34.2684 30.7955L33.8464 30.5463C33.5251 31.2419 33.3192 32.0054 33.2552 32.8097H33.7411C34.0337 32.8097 34.27 33.0525 34.27 33.3512C34.27 33.6498 34.0329 33.8926 33.7411 33.8926H33.2552C33.3192 34.6961 33.5243 35.4588 33.8457 36.1544L34.2661 35.906C34.5196 35.7559 34.8433 35.8445 34.99 36.1033C35.1366 36.3629 35.05 36.6943 34.7973 36.8445L34.3761 37.0936C34.5953 37.4163 34.8418 37.7182 35.1124 37.9953C35.3831 38.2724 35.6779 38.5248 35.9939 38.7492L36.2364 38.3196C36.3823 38.06 36.7052 37.9705 36.9587 38.1199C37.2123 38.2692 37.2996 38.5999 37.1538 38.8594L36.9104 39.2915C37.5898 39.6206 38.3339 39.8306 39.1186 39.8969V39.3993C39.1186 39.099 39.3565 38.8555 39.6498 38.8555C39.9431 38.8555 40.181 39.099 40.181 39.3993V39.8969C40.965 39.8314 41.7091 39.6206 42.3885 39.2923L42.1459 38.8618C41.9993 38.6023 42.0859 38.2708 42.3386 38.1207C42.5921 37.9705 42.9158 38.0592 43.0624 38.318L43.3058 38.7492C43.6209 38.5248 43.9158 38.2724 44.1865 37.9953C44.4571 37.7182 44.7036 37.4163 44.9228 37.0928L44.5032 36.8445C44.2496 36.6951 44.1623 36.3645 44.3081 36.1049C44.454 35.8453 44.7769 35.7559 45.0305 35.9052L45.4524 36.1544C45.7738 35.4588 45.9797 34.6953 46.0437 33.891H45.5577C45.2652 33.891 45.0289 33.6483 45.0289 33.3496C45.0289 33.0509 45.266 32.8081 45.5577 32.8081H46.0437C45.9797 32.0046 45.7746 31.2419 45.4532 30.5463L45.0328 30.7947C44.7793 30.9448 44.4556 30.8562 44.3089 30.5974C44.1623 30.3378 44.2489 30.0064 44.5016 29.8563L44.9228 29.6071C44.7036 29.2844 44.4571 28.9825 44.1865 28.7054C43.9158 28.4283 43.6209 28.1759 43.305 27.9515L43.0624 28.3812C42.9166 28.6407 42.5937 28.7302 42.3401 28.5808C42.0866 28.4315 41.9993 28.1008 42.1451 27.8413L42.3885 27.4092C41.7091 27.0802 40.9642 26.8693 40.1803 26.8038ZM34.3613 27.9363C33.0079 29.322 32.171 31.2355 32.171 33.3496C32.171 35.4636 33.0079 37.3779 34.3613 38.7628C35.7146 40.1485 37.5836 41.0054 39.6483 41.0054C41.713 41.0054 43.5827 40.1485 44.9353 38.7628C46.2886 37.3771 47.1256 35.4636 47.1256 33.3496C47.1256 31.2355 46.2886 29.3212 44.9353 27.9363C43.5819 26.5506 41.713 25.6937 39.6483 25.6937C37.5843 25.6937 35.7146 26.5506 34.3613 27.9363ZM39.6491 24.8631C41.9377 24.8631 44.0102 25.8127 45.5102 27.3485C47.0102 28.8843 47.9376 31.0063 47.9376 33.3496C47.9376 35.6928 47.0102 37.8148 45.5102 39.3506C44.0102 40.8864 41.9377 41.836 39.6491 41.836C37.3605 41.836 35.2879 40.8864 33.7879 39.3506C32.288 37.8148 31.3605 35.6928 31.3605 33.3496C31.3605 31.0063 32.288 28.8843 33.7879 27.3485C35.2879 25.8127 37.3597 24.8631 39.6491 24.8631ZM33.0368 26.5794C34.7287 24.8471 37.0672 23.7753 39.6491 23.7753C42.2309 23.7753 44.5687 24.8471 46.2613 26.5794C47.9532 28.3117 49 30.706 49 33.3496C49 35.9931 47.9532 38.3866 46.2613 40.1197C44.5695 41.852 42.2309 42.9238 39.6491 42.9238C37.0672 42.9238 34.7294 41.852 33.0368 40.1197C31.3449 38.3874 30.2981 35.9931 30.2981 33.3496C30.2973 30.706 31.3441 28.3125 33.0368 26.5794Z" fill="white"/>
</svg>
