<svg width="60" height="60" viewBox="0 0 60 60" fill="none" xmlns="http://www.w3.org/2000/svg">
<rect width="60" height="60" rx="7" fill="#00954D"/>
<path d="M37.1045 48.2099C36.1109 48.2099 35.022 48.1939 33.8377 48.1618C30.2859 48.0664 26.8264 47.0096 23.8275 45.1041C23.6604 44.9925 23.5436 44.8199 23.5021 44.6232C23.4607 44.4266 23.4978 44.2215 23.6056 44.0519C23.7134 43.8823 23.8833 43.7616 24.079 43.7156C24.2746 43.6697 24.4805 43.7021 24.6525 43.806C27.4167 45.5622 30.6053 46.5362 33.879 46.6243C37.8214 46.7301 40.7771 46.6537 42.419 46.4022C43.3493 46.258 43.9791 45.908 44.3454 45.3262C45.056 44.1983 44.5642 42.5411 44.5589 42.5243C44.5288 42.4264 44.5185 42.3234 44.5287 42.2214C44.5389 42.1195 44.5694 42.0206 44.6183 41.9306C44.6673 41.8405 44.7337 41.7612 44.8138 41.6972C44.8938 41.6332 44.9858 41.5859 45.0844 41.5579C45.9498 41.3132 46.5176 40.8892 46.8238 40.2599C47.4724 38.9329 46.7488 37.117 46.7416 37.0988C46.6796 36.9456 46.6684 36.7765 46.7097 36.6165C46.751 36.4565 46.8426 36.3139 46.9709 36.2098C48.0214 35.367 48.5205 34.5603 48.4541 33.8122C48.3618 32.7776 47.1758 31.9156 46.7262 31.6708C46.6102 31.6081 46.5122 31.5165 46.4417 31.405C46.3713 31.2934 46.3307 31.1656 46.3239 31.0339C46.3171 30.9021 46.3443 30.7708 46.4029 30.6526C46.4614 30.5344 46.5495 30.4332 46.6584 30.3588C47.9786 29.4583 48.4652 28.4785 48.146 27.3646C47.8022 26.1626 46.6695 25.327 45.3916 25.327H37.5733C37.3882 25.3271 37.2054 25.2856 37.0384 25.2056C36.8715 25.1256 36.7247 25.0091 36.6087 24.8648C36.4928 24.7204 36.4108 24.5519 36.3687 24.3716C36.3266 24.1914 36.3256 24.0039 36.3656 23.8232C36.5064 23.1828 36.6627 21.4866 36.1343 17.3231C35.8853 15.3621 35.2031 13.9827 34.1074 13.2231C33.2122 12.6029 32.2213 12.5149 31.5944 12.539L31.9035 17.3106C32.006 18.8451 31.6179 20.3723 30.7953 21.6717L26.3626 28.7064C25.9258 29.3975 25.3421 29.9838 24.653 30.4237C24.4808 30.5333 24.2722 30.5699 24.0731 30.5256C23.8739 30.4814 23.7005 30.3598 23.591 30.1877C23.4814 30.0155 23.4448 29.8069 23.489 29.6078C23.5333 29.4086 23.6549 29.2352 23.827 29.1256C24.3244 28.8079 24.7457 28.3846 25.0612 27.8857L29.4939 20.8511C30.143 19.8257 30.4491 18.6205 30.3679 17.4097L30.0117 11.912C29.9999 11.7306 30.0528 11.5508 30.1609 11.4046C30.2691 11.2584 30.4256 11.1553 30.6025 11.1135C30.6987 11.0909 32.9843 10.5721 34.9838 11.9587C36.4536 12.9789 37.3555 14.7173 37.6603 17.1294C38.0449 20.1438 38.1367 22.4304 37.9348 23.7886H45.393C47.3541 23.7886 49.095 25.0867 49.6263 26.941C49.934 28.0141 49.9195 29.5199 48.3762 30.9564C49.0537 31.5237 49.8748 32.4492 49.9864 33.6665C50.094 34.8358 49.5426 35.9742 48.3469 37.0584C48.5873 37.8863 48.8964 39.5147 48.2104 40.9286C47.8022 41.769 47.1238 42.3955 46.1873 42.7974C46.3152 43.6195 46.3705 44.9892 45.6531 46.1363C45.044 47.1104 44.0339 47.7118 42.6512 47.9234C41.4036 48.1142 39.5444 48.2099 37.1045 48.2099Z" fill="white"/>
<path d="M24.2405 48.7081H10.7692C10.5652 48.7081 10.3696 48.6271 10.2253 48.4828C10.081 48.3385 10 48.1429 10 47.9389V25.3618C10 25.1578 10.081 24.9621 10.2253 24.8178C10.3696 24.6736 10.5652 24.5925 10.7692 24.5925H24.2405C24.4445 24.5925 24.6402 24.6736 24.7844 24.8178C24.9287 24.9621 25.0097 25.1578 25.0097 25.3618V47.9389C25.0097 48.1429 24.9287 48.3385 24.7844 48.4828C24.6402 48.6271 24.4445 48.7081 24.2405 48.7081ZM11.5385 47.1696H23.4713V26.131H11.5385V47.1696Z" fill="white"/>
<path d="M20.8174 45.2868H17.0231C16.8191 45.2868 16.6235 45.2057 16.4792 45.0615C16.335 44.9172 16.2539 44.7215 16.2539 44.5175C16.2539 44.3135 16.335 44.1179 16.4792 43.9736C16.6235 43.8293 16.8191 43.7483 17.0231 43.7483H20.8174C21.0214 43.7483 21.2171 43.8293 21.3613 43.9736C21.5056 44.1179 21.5866 44.3135 21.5866 44.5175C21.5866 44.7215 21.5056 44.9172 21.3613 45.0615C21.2171 45.2057 21.0214 45.2868 20.8174 45.2868Z" fill="white"/>
</svg>
