<svg width="60" height="60" viewBox="0 0 60 60" fill="none" xmlns="http://www.w3.org/2000/svg">
<rect width="60" height="60" rx="7" fill="#00954D"/>
<path d="M34.2558 42.184C33.4248 42.184 32.6184 41.5377 31.8428 40.916C31.2273 40.4358 30.5502 39.888 30.1008 39.888C29.6515 39.888 28.9682 40.4358 28.3588 40.916C27.4539 41.6423 26.5121 42.3933 25.5396 42.1471C24.567 41.9008 24.0746 40.7313 23.6437 39.6233C23.3728 38.9277 23.0281 38.1337 22.7019 37.9305C22.3756 37.7274 21.4708 37.8444 20.726 37.9305C19.5687 38.1029 18.3622 38.2876 17.6482 37.555C16.9342 36.8225 17.0942 35.6222 17.2727 34.4773C17.3835 33.7263 17.5128 32.8707 17.2727 32.5075C17.0326 32.1443 16.2755 31.8366 15.5738 31.5657C14.4658 31.1287 13.327 30.6855 13.0562 29.6698C12.7853 28.6542 13.5425 27.7555 14.2873 26.8444C14.7736 26.2289 15.3214 25.5518 15.3214 25.1086C15.3214 24.6654 14.7736 23.976 14.2873 23.3666C13.5671 22.4617 12.8161 21.5199 13.0562 20.5412C13.2962 19.5625 14.4658 19.0823 15.5738 18.6514C16.2755 18.3744 17.0696 18.0667 17.2727 17.7096C17.4758 17.3526 17.3589 16.4785 17.2727 15.7337C17.0942 14.5703 16.9157 13.37 17.6482 12.656C18.3807 11.9419 19.581 12.1081 20.726 12.2805C21.4831 12.3974 22.3325 12.5205 22.7019 12.2805C23.0712 12.0404 23.3667 11.2771 23.6437 10.5816C24.0746 9.47356 24.5239 8.33478 25.5396 8.05779C26.5552 7.78079 27.4539 8.55023 28.3588 9.28889C28.9744 9.76902 29.6515 10.3169 30.1008 10.3169C30.5502 10.3169 31.2334 9.76902 31.8428 9.28889C32.7477 8.56254 33.6895 7.81772 34.6621 8.05779C35.6346 8.29785 36.1271 9.47356 36.558 10.5816C36.8288 11.2771 37.1427 12.0712 37.4997 12.2805C37.8568 12.4898 38.7309 12.3667 39.4757 12.2805C40.6329 12.1081 41.8394 11.9296 42.5534 12.656C43.2675 13.3823 43.1074 14.5888 42.9289 15.7337C42.8181 16.4847 42.6889 17.3403 42.9289 17.7096C43.169 18.079 43.9261 18.3744 44.6278 18.6514C45.7358 19.0823 46.8746 19.5317 47.1455 20.5412C47.4163 21.5507 46.6592 22.4617 45.9143 23.3666C45.4281 23.9821 44.8802 24.6592 44.8802 25.1086C44.8802 25.5579 45.4281 26.2412 45.9143 26.8444C46.6345 27.7555 47.3855 28.6911 47.1455 29.6698C46.9054 30.6485 45.7358 31.1287 44.6278 31.5657C43.9261 31.8366 43.1321 32.1813 42.9289 32.5014C42.7258 32.8214 42.8427 33.7325 42.9289 34.4773C43.1074 35.6407 43.2859 36.841 42.5534 37.555C41.8209 38.2691 40.6268 38.1029 39.4757 37.9305C38.7247 37.8197 37.8691 37.6905 37.4997 37.9305C37.1304 38.1706 36.835 38.9277 36.558 39.6295C36.1271 40.7313 35.6777 41.8762 34.6621 42.1471C34.5289 42.1773 34.3923 42.1898 34.2558 42.184ZM30.1008 38.6569C30.9749 38.6569 31.8059 39.3155 32.6061 39.9557C33.2217 40.4358 33.9726 41.0452 34.3481 40.9406C34.7236 40.8359 35.1237 39.9003 35.413 39.1616C35.7762 38.226 36.1517 37.2657 36.8842 36.841C37.6167 36.4163 38.657 36.5702 39.6542 36.7179C40.4359 36.8348 41.4085 36.9826 41.6978 36.7179C41.9871 36.4532 41.8455 35.4868 41.6978 34.6804C41.5501 33.6832 41.3962 32.6491 41.8271 31.9043C42.258 31.1595 43.2121 30.8024 44.1416 30.4331C44.8864 30.1438 45.8097 29.7806 45.9205 29.3682C46.0313 28.9558 45.4219 28.2356 44.9356 27.6323C44.3201 26.8321 43.6368 26.0011 43.6368 25.127C43.6368 24.253 44.3016 23.422 44.9356 22.6156C45.4219 22 46.019 21.2552 45.9205 20.8797C45.822 20.5043 44.8864 20.1041 44.1416 19.8148C43.2121 19.4517 42.2457 19.07 41.8271 18.3437C41.4085 17.6173 41.5501 16.5709 41.6978 15.5675C41.8148 14.7919 41.9625 13.8194 41.6978 13.53C41.4331 13.2407 40.4359 13.3823 39.6542 13.4993C38.657 13.647 37.6229 13.807 36.8842 13.3762C36.1455 12.9453 35.7762 11.9912 35.413 11.0617C35.1176 10.2861 34.7605 9.36276 34.3481 9.23965C33.9357 9.11654 33.2155 9.73824 32.6061 10.2184C31.8059 10.8339 30.9749 11.5172 30.1008 11.5172C29.2267 11.5172 28.3957 10.8585 27.5955 10.2184C26.98 9.73824 26.229 9.135 25.8535 9.23965C25.478 9.34429 25.0779 10.2861 24.7886 11.0309C24.4254 11.9604 24.0499 12.933 23.3297 13.3454C22.6095 13.7578 21.5569 13.6224 20.5598 13.4685C19.778 13.3515 18.8054 13.21 18.5161 13.4993C18.2268 13.7886 18.3684 14.7611 18.5161 15.5367C18.6639 16.5401 18.8177 17.5742 18.3869 18.3129C17.956 19.0515 17.0019 19.4209 16.0724 19.7841C15.3276 20.0734 14.4042 20.4365 14.2934 20.849C14.1826 21.2614 14.792 21.9816 15.2783 22.5848C15.8754 23.3973 16.5587 24.216 16.5587 25.0963C16.5587 25.9765 15.8939 26.8013 15.2599 27.6016C14.7736 28.2171 14.1765 28.9619 14.275 29.3374C14.3735 29.7129 15.3091 30.113 16.0539 30.4023C16.9834 30.7717 17.9498 31.1471 18.3684 31.8735C18.787 32.5998 18.6454 33.6524 18.4977 34.6496C18.3807 35.4314 18.233 36.3978 18.4977 36.6933C18.7623 36.9887 19.7595 36.8348 20.5413 36.6933C21.5385 36.5455 22.5726 36.3917 23.3113 36.8164C24.0499 37.2411 24.4193 38.2014 24.7824 39.137C25.0779 39.8757 25.4349 40.8052 25.8473 40.916C26.2598 41.0268 26.98 40.4112 27.5894 39.9311C28.3957 39.3155 29.2267 38.6569 30.1008 38.6569Z" fill="white"/>
<path d="M30.101 36.2563C27.892 36.2575 25.7323 35.6035 23.8951 34.377C22.0579 33.1506 20.6258 31.4067 19.7799 29.3661C18.934 27.3255 18.7123 25.0799 19.143 22.9133C19.5736 20.7467 20.6372 18.7565 22.1992 17.1946C23.7612 15.6326 25.7514 14.569 27.9179 14.1383C30.0845 13.7077 32.3302 13.9293 34.3708 14.7752C36.4114 15.6211 38.1552 17.0533 39.3817 18.8905C40.6082 20.7277 41.2622 22.8874 41.2609 25.0963C41.2577 28.0552 40.0809 30.8918 37.9887 32.984C35.8965 35.0762 33.0598 36.2531 30.101 36.2563ZM30.101 15.1613C28.1358 15.1601 26.2143 15.7418 24.5797 16.8327C22.9451 17.9236 21.6707 19.4748 20.9178 21.2901C20.1649 23.1054 19.9673 25.1032 20.35 27.0308C20.7326 28.9584 21.6783 30.7292 23.0675 32.1193C24.4567 33.5093 26.227 34.4562 28.1543 34.84C30.0817 35.2239 32.0796 35.0275 33.8954 34.2757C35.7111 33.5239 37.2631 32.2505 38.3551 30.6166C39.447 28.9826 40.0298 27.0616 40.0298 25.0963C40.0282 22.463 38.9818 19.9379 37.1203 18.0752C35.2588 16.2126 32.7343 15.1646 30.101 15.1613Z" fill="white"/>
<path d="M33.6097 30.4885C33.5087 30.488 33.4094 30.4627 33.3204 30.4147L30.1011 28.7219L26.8818 30.4147C26.7828 30.4654 26.672 30.4883 26.561 30.4811C26.45 30.4739 26.3431 30.4367 26.2516 30.3736C26.16 30.3105 26.0873 30.2237 26.0411 30.1226C25.9949 30.0214 25.977 29.9096 25.9892 29.7991L26.6048 26.2104L23.9948 23.6682C23.9135 23.5877 23.8563 23.4861 23.8296 23.3748C23.8028 23.2635 23.8076 23.147 23.8434 23.0383C23.8792 22.9297 23.9446 22.8331 24.0322 22.7595C24.1199 22.6859 24.2263 22.6382 24.3395 22.6218L27.9405 22.0986L29.5471 18.8361C29.5975 18.7321 29.6762 18.6443 29.7742 18.5829C29.8722 18.5215 29.9855 18.4889 30.1011 18.4889C30.2167 18.4889 30.33 18.5215 30.428 18.5829C30.526 18.6443 30.6047 18.7321 30.6551 18.8361L32.2617 22.0986L35.8627 22.6218C35.9759 22.6382 36.0823 22.6859 36.17 22.7595C36.2576 22.8331 36.323 22.9297 36.3588 23.0383C36.3946 23.147 36.3994 23.2635 36.3727 23.3748C36.3459 23.4861 36.2887 23.5877 36.2074 23.6682L33.5974 26.2104L34.213 29.7991C34.2356 29.9139 34.2251 30.0328 34.1825 30.1418C34.14 30.2509 34.0673 30.3455 33.9729 30.4147C33.8623 30.476 33.7355 30.5018 33.6097 30.4885ZM30.1011 27.4108C30.2003 27.4104 30.2979 27.4359 30.3843 27.4846L32.7911 28.7157L32.3294 26.0381C32.3132 25.9401 32.321 25.8397 32.3521 25.7453C32.3832 25.651 32.4367 25.5656 32.5079 25.4964L34.4531 23.6005L31.7692 23.2066C31.6785 23.1921 31.5922 23.1575 31.5165 23.1053C31.4409 23.0531 31.3779 22.9846 31.3322 22.9049L30.1011 20.4427L28.87 22.9049C28.8249 22.9942 28.7587 23.0711 28.6772 23.129C28.5957 23.1869 28.5013 23.2241 28.4022 23.2373L25.7184 23.6313L27.6635 25.5272C27.7348 25.5964 27.7882 25.6818 27.8193 25.7761C27.8504 25.8704 27.8582 25.9709 27.842 26.0689L27.3804 28.7465L29.7872 27.5154C29.8792 27.4504 29.9884 27.414 30.1011 27.4108Z" fill="white"/>
<path d="M35.1486 51.0972C35.0277 51.0971 34.9096 51.0614 34.8089 50.9947C34.7082 50.9279 34.6294 50.8329 34.5822 50.7217L29.824 39.5556C29.7605 39.4054 29.7592 39.2361 29.8203 39.0849C29.8815 38.9337 30.0002 38.813 30.1503 38.7492C30.3005 38.6857 30.4698 38.6843 30.621 38.7455C30.7721 38.8067 30.8929 38.9253 30.9566 39.0754L35.1486 48.9243L36.8721 44.8616C36.9335 44.7182 37.0472 44.6034 37.19 44.5406C37.3329 44.4777 37.4943 44.4715 37.6415 44.5231L41.8581 45.9881L38.2386 37.4627C38.1822 37.3139 38.1857 37.149 38.2482 37.0027C38.3107 36.8564 38.4275 36.74 38.574 36.6778C38.7205 36.6157 38.8854 36.6128 39.034 36.6696C39.1826 36.7264 39.3035 36.8386 39.3712 36.9826L43.5324 46.7883C43.5781 46.8979 43.5911 47.0184 43.5699 47.1353C43.5487 47.2521 43.4941 47.3603 43.4128 47.4469C43.3315 47.5334 43.2269 47.5946 43.1115 47.623C42.9962 47.6514 42.8752 47.6458 42.7629 47.607L37.777 45.8588L35.7149 50.7217C35.6677 50.8329 35.5889 50.9279 35.4882 50.9947C35.3875 51.0614 35.2694 51.0971 35.1486 51.0972Z" fill="white"/>
<path d="M25.0533 51.0972C24.9325 51.0971 24.8144 51.0614 24.7137 50.9947C24.613 50.9279 24.5342 50.8329 24.487 50.7217L22.4249 45.8588L17.439 47.607C17.3267 47.6458 17.2057 47.6514 17.0904 47.623C16.975 47.5946 16.8704 47.5334 16.7891 47.4469C16.7077 47.3603 16.6532 47.2521 16.632 47.1353C16.6108 47.0184 16.6238 46.8979 16.6695 46.7883L20.8307 36.9826C20.8984 36.8386 21.0193 36.7264 21.1679 36.6696C21.3165 36.6128 21.4814 36.6157 21.6279 36.6778C21.7744 36.74 21.8912 36.8564 21.9537 37.0027C22.0162 37.149 22.0197 37.3139 21.9633 37.4627L18.3438 45.9881L22.5604 44.5046C22.7076 44.453 22.869 44.4592 23.0119 44.5221C23.1547 44.5849 23.2684 44.6997 23.3298 44.8432L25.0533 48.9058L29.2453 39.057C29.309 38.9069 29.4298 38.7882 29.5809 38.727C29.7321 38.6659 29.9014 38.6672 30.0516 38.7307C30.2017 38.7945 30.3204 38.9152 30.3816 39.0664C30.4427 39.2176 30.4414 39.3869 30.3779 39.5371L25.6196 50.7217C25.5725 50.8329 25.4937 50.9279 25.393 50.9947C25.2923 51.0614 25.1742 51.0971 25.0533 51.0972Z" fill="white"/>
</svg>
