<svg width="60" height="60" viewBox="0 0 60 60" fill="none" xmlns="http://www.w3.org/2000/svg">
<rect width="60" height="60" rx="7" fill="#00954D"/>
<path d="M38.9158 19.6034C41.167 18.7694 43.5592 20.5022 43.4681 22.8989C43.4538 23.2752 43.7545 23.5908 44.1347 23.5908C44.4912 23.5908 44.7868 23.3088 44.8004 22.9495C44.932 19.4893 41.3762 17.069 38.2061 18.4533L33.9761 11.5989C32.9996 10.0163 30.9282 9.52564 29.3455 10.5025C27.7666 11.4767 27.2747 13.5541 28.249 15.1331L40.5692 35.0975C34.3986 34.4246 28.2726 35.6528 22.7677 38.6825C22.5889 38.7815 20.4183 40.1316 18.1466 41.5334C17.0125 42.2332 15.5202 41.88 14.8203 40.7457L12.6947 37.3014C11.9947 36.1671 12.348 34.6749 13.4823 33.975L17.5075 31.491L21.0148 37.1745C21.2081 37.4879 21.6188 37.5852 21.9321 37.3916C22.2454 37.1983 22.3427 36.7876 22.1494 36.4743L18.6211 30.7569C22.7479 27.7888 26.0668 23.8359 28.2414 19.2882C28.4002 18.956 28.2597 18.558 27.9276 18.3991C27.5956 18.2406 27.1974 18.3809 27.0387 18.713C24.876 23.2357 21.5286 27.1441 17.3578 30.0166L12.7821 32.8404C11.0182 33.9287 10.4713 36.2374 11.56 38.0015L13.6856 41.4458C14.7717 43.2058 17.0867 43.754 18.8467 42.6679C23.6411 39.7093 23.3909 39.8229 24.6934 39.1858L29.204 45.8708C29.4794 46.2789 29.574 46.7684 29.4704 47.2494C29.1745 48.6228 27.4688 49.1497 26.4563 48.1437L22.3099 44.0245C22.0487 43.7652 21.6267 43.7665 21.3673 44.0276C21.1078 44.2889 21.1092 44.7109 21.3703 44.9704L25.5167 49.0896C26.5437 50.1098 28.1236 50.2947 29.36 49.532C30.867 48.602 31.3068 46.6035 30.3093 45.125L25.9202 38.6201C34.3513 34.965 41.3862 36.6358 41.9105 36.6069C42.3982 36.5801 42.6878 36.0536 42.4611 35.6284C42.4363 35.5822 29.5934 14.773 29.3837 14.433C28.7954 13.4797 29.0923 12.2253 30.0457 11.637C31.0014 11.0473 32.2519 11.3434 32.8416 12.299L46.2021 33.9494C46.9769 35.2048 46.1899 36.8445 44.734 37.0318C44.3689 37.0787 44.1109 37.4128 44.1578 37.778C44.2049 38.1442 44.5404 38.4013 44.904 38.3541C47.3312 38.042 48.6135 35.3181 47.3367 33.2492L38.9158 19.6034Z" fill="white"/>
<path d="M46.8354 19.0837C46.9668 19.0837 47.0995 19.0449 47.2155 18.9642L48.416 18.1291C48.7183 17.9188 48.7928 17.5034 48.5826 17.2011C48.3724 16.8987 47.9568 16.8242 47.6547 17.0346L46.4542 17.8697C45.9187 18.2422 46.1851 19.0837 46.8354 19.0837Z" fill="white"/>
<path d="M41.8356 15.0004C42.2037 15.0004 42.5022 14.7019 42.5022 14.3337V12.8339C42.5022 12.4657 42.2037 12.1672 41.8356 12.1672C41.4674 12.1672 41.1689 12.4657 41.1689 12.8339V14.3337C41.1689 14.7019 41.4674 15.0004 41.8356 15.0004Z" fill="white"/>
<path d="M49.0333 25.5808L47.8159 24.7047C47.517 24.4896 47.1004 24.5576 46.8853 24.8564C46.6703 25.1552 46.7383 25.5718 47.0371 25.7868L48.2545 26.6629C48.5521 26.8771 48.9689 26.8115 49.185 26.5113C49.4001 26.2125 49.3321 25.7958 49.0333 25.5808Z" fill="white"/>
<path d="M16.4678 36.6105L15.4678 37.2772C15.1615 37.4813 15.0787 37.8953 15.2829 38.2016C15.4877 38.5087 15.9017 38.5902 16.2074 38.3865L17.2073 37.7199C17.5136 37.5157 17.5964 37.1018 17.3922 36.7954C17.1879 36.4891 16.774 36.4064 16.4678 36.6105Z" fill="white"/>
</svg>
