<svg width="76" height="108" viewBox="0 0 76 108" fill="none" xmlns="http://www.w3.org/2000/svg">
<path d="M37.7002 0.546631C17.0227 0.546631 0.200195 17.3691 0.200195 38.0466C0.200195 45.0329 2.1354 51.8508 5.7979 57.7658L35.5656 105.736C36.1358 106.655 37.1404 107.213 38.2208 107.213C38.2292 107.213 38.2373 107.213 38.2456 107.213C39.3354 107.205 40.3421 106.629 40.9019 105.694L69.9108 57.2591C73.3712 51.4691 75.2002 44.8256 75.2002 38.0466C75.2002 17.3691 58.3777 0.546631 37.7002 0.546631ZM64.5473 54.0504L38.1735 98.0854L11.11 54.4729C8.06145 49.5495 6.40853 43.8695 6.40853 38.0466C6.40853 20.8154 20.4689 6.75496 37.7002 6.75496C54.9314 6.75496 68.971 20.8154 68.971 38.0466C68.971 43.6968 67.4271 49.2316 64.5473 54.0504Z" fill="#E8E8E8"/>
<path d="M37.7002 19.2966C27.3614 19.2966 18.9502 27.7079 18.9502 38.0466C18.9502 48.3193 27.2246 56.7966 37.7002 56.7966C48.305 56.7966 56.4502 48.2064 56.4502 38.0466C56.4502 27.7079 48.0389 19.2966 37.7002 19.2966ZM37.7002 50.5883C30.7717 50.5883 25.1585 44.9564 25.1585 38.0466C25.1585 31.1541 30.8077 25.505 37.7002 25.505C44.5927 25.505 50.221 31.1541 50.221 38.0466C50.221 44.8556 44.7385 50.5883 37.7002 50.5883Z" fill="#E8E8E8"/>
</svg>
