<svg width="40" height="36" viewBox="0 0 40 36" fill="none" xmlns="http://www.w3.org/2000/svg">
<path d="M13.75 17.8125H7.5V12.8125C7.5 10.0547 9.74216 7.8125 12.5 7.8125H13.125C14.164 7.8125 15 6.97658 15 5.93746V2.18754C15 1.1485 14.1641 0.3125 13.125 0.3125H12.5C5.59376 0.3125 0 5.90626 0 12.8125V31.5625C0 33.6328 1.67968 35.3125 3.75 35.3125H13.75C15.8203 35.3125 17.5 33.6328 17.5 31.5625V21.5625C17.5 19.4922 15.8203 17.8125 13.75 17.8125Z" fill="#C4C4C4"/>
<path d="M36.25 17.8125H30V12.8125C30 10.0547 32.2422 7.8125 35 7.8125H35.625C36.664 7.8125 37.5 6.97658 37.5 5.93746V2.18754C37.5 1.1485 36.6641 0.3125 35.625 0.3125H35C28.0938 0.3125 22.5 5.90626 22.5 12.8125V31.5625C22.5 33.6328 24.1797 35.3125 26.25 35.3125H36.25C38.3203 35.3125 40 33.6328 40 31.5625V21.5625C40 19.4922 38.3203 17.8125 36.25 17.8125Z" fill="#C4C4C4"/>
</svg>
