<svg width="23" height="23" viewBox="0 0 23 23" fill="none" xmlns="http://www.w3.org/2000/svg">
<path d="M8.88608 8.36371C10.3295 8.36371 11.4997 7.19356 11.4997 5.75009C11.4997 4.30663 10.3295 3.13647 8.88608 3.13647C7.44262 3.13647 6.27246 4.30663 6.27246 5.75009C6.27246 7.19356 7.44262 8.36371 8.88608 8.36371Z" fill="white"/>
<path d="M12.4615 9.96509C11.6264 9.47297 10.3277 8.88647 8.88619 8.88647C7.44459 8.88647 6.14594 9.47302 5.31083 9.96509C4.61456 10.376 4.18164 11.1739 4.18164 12.0473V12.3822C4.18164 13.0489 4.68395 13.591 5.30162 13.591H12.4708C13.0884 13.591 13.5907 13.0489 13.5907 12.3822V12.0473C13.5907 11.1739 13.1578 10.376 12.4615 9.96509Z" fill="white"/>
<path d="M22.6937 21.2154L15.8577 14.3794C17.0529 12.8659 17.7727 10.9602 17.7727 8.88635C17.7727 3.98632 13.7859 0 8.88635 0C3.98681 0 0 3.98632 0 8.88635C0 13.7864 3.98681 17.7727 8.88635 17.7727C10.9601 17.7727 12.8658 17.053 14.3794 15.8577L21.2153 22.6936C21.4195 22.8979 21.687 22.9999 21.9545 22.9999C22.222 22.9999 22.4895 22.8979 22.6936 22.6936C23.1021 22.2853 23.1021 21.6238 22.6937 21.2154ZM8.88635 15.6818C5.13947 15.6818 2.09088 12.6333 2.09088 8.88635C2.09088 5.13947 5.13942 2.09088 8.88635 2.09088C12.6333 2.09093 15.6818 5.13947 15.6818 8.88635C15.6818 12.6333 12.6333 15.6818 8.88635 15.6818Z" fill="white"/>
</svg>
