<svg width="18" height="23" viewBox="0 0 18 23" fill="none" xmlns="http://www.w3.org/2000/svg">
<path d="M14.147 5.30462C12.4403 3.50973 11.586 2.50042 12.3662 0.939899C12.4669 0.73861 12.4562 0.499478 12.3378 0.308017C12.2195 0.116556 12.0104 0 11.7854 0C9.36166 0 8.33001 2.0106 7.65466 3.23119C7.09067 4.25054 6.71268 4.86952 6.22022 4.86952C5.69325 4.86952 5.49642 4.53869 5.47845 4.12399C5.48997 3.57532 4.83115 3.27021 4.41312 3.62879C2.14183 5.50993 -0.128947 9.69077 0.00570731 13.1711C0.00562071 18.1321 4.04176 22.1682 9.00281 22.1682C13.9744 22.1682 18 18.1039 18 13.1711C18 9.3566 15.8636 7.10986 14.147 5.30462ZM9.00281 19.3857C5.57604 19.3857 2.78817 16.5978 2.78817 13.1711C3.1006 4.93785 14.9062 4.94005 15.2174 13.1711C15.2174 16.5978 12.4295 19.3857 9.00281 19.3857Z" fill="white"/>
<path d="M13.1765 12.5215H13.8754C13.76 11.6511 13.4159 10.852 12.9058 10.1865C12.2745 10.7741 11.3999 9.89875 11.9874 9.26795C11.3217 8.75773 10.5226 8.41361 9.65211 8.29822V8.99712C9.65211 9.3558 9.36133 9.64658 9.00265 9.64658C8.64398 9.64658 8.35319 9.3558 8.35319 8.99712V8.29826C7.48188 8.41378 6.68205 8.75843 6.01609 9.26942C6.52284 9.88901 5.72002 10.691 5.10104 10.1845C4.59005 10.8504 4.2454 11.6503 4.12988 12.5216H4.82875C5.18742 12.5216 5.47821 12.8124 5.47821 13.171C5.47821 13.5297 5.18742 13.8205 4.82875 13.8205H4.12988C4.2454 14.6918 4.59005 15.4916 5.10104 16.1576C5.72058 15.6508 6.52262 16.4537 6.01605 17.0726C6.682 17.5836 7.48183 17.9282 8.35315 18.0438V17.3449C8.35315 16.9862 8.64394 16.6954 9.00261 16.6954C9.36129 16.6954 9.65207 16.9862 9.65207 17.3449V18.0437C10.5233 17.9282 11.3232 17.5836 11.9892 17.0726C11.4824 16.4529 12.2852 15.651 12.9042 16.1575C13.4152 15.4916 13.7599 14.6917 13.8754 13.8204H13.1765C12.3159 13.7886 12.3162 12.5532 13.1765 12.5215ZM11.201 11.8911L9.46186 13.6302C9.34007 13.752 9.17489 13.8205 9.00265 13.8205C8.83042 13.8205 8.66524 13.752 8.54344 13.6302L7.49998 12.5868C6.91416 11.9562 7.7873 11.0821 8.41844 11.6683L9.0027 12.2525L10.2826 10.9727C10.9134 10.3866 11.7869 11.2603 11.201 11.8911Z" fill="white"/>
</svg>
