<svg width="18" height="24" viewBox="0 0 18 24" fill="none" xmlns="http://www.w3.org/2000/svg">
<path d="M12.6923 16.6154H12.2308C12.2308 18.3968 10.7814 19.8461 9 19.8461C7.21855 19.8461 5.76923 18.3968 5.76923 16.6154H5.30769C2.38103 16.6154 0 18.9964 0 21.923V22.9384C0 23.3208 0.309969 23.6307 0.692308 23.6307H17.3077C17.69 23.6307 18 23.3208 18 22.9384V21.923C18 18.9964 15.619 16.6154 12.6923 16.6154Z" fill="white"/>
<path d="M7.1543 15.9232V16.6155C7.1543 17.6351 7.98087 18.4617 9.00045 18.4617C10.02 18.4617 10.8466 17.6351 10.8466 16.6155V15.9232H7.1543Z" fill="white"/>
<path d="M8.99992 2.76923C9.38226 2.76923 9.69223 2.45926 9.69223 2.07692V0.692308C9.69223 0.309969 9.38226 0 8.99992 0C8.61759 0 8.30762 0.309969 8.30762 0.692308V2.07692C8.30762 2.45926 8.61759 2.76923 8.99992 2.76923Z" fill="white"/>
<path d="M3.78525 2.27525L4.47756 3.47438C4.66872 3.80548 5.09214 3.91893 5.42325 3.72776C5.75436 3.53659 5.8678 3.11318 5.67663 2.78207L4.98433 1.58294C4.79316 1.25184 4.36974 1.13839 4.03863 1.32956C3.70752 1.52073 3.59408 1.94414 3.78525 2.27525Z" fill="white"/>
<path d="M0.659726 5.9073L1.85885 6.59961C2.18996 6.79078 2.61337 6.67733 2.80454 6.34622C2.99571 6.01511 2.88227 5.5917 2.55116 5.40053L1.35203 4.70822C1.02093 4.51705 0.597511 4.6305 0.406342 4.96161C0.215172 5.29271 0.328618 5.71613 0.659726 5.9073Z" fill="white"/>
<path d="M16.6479 4.70822L15.4488 5.40053C15.1177 5.5917 15.0042 6.01511 15.1954 6.34622C15.3866 6.67733 15.81 6.79078 16.1411 6.59961L17.3402 5.9073C17.6713 5.71613 17.7848 5.29271 17.5936 4.96161C17.4024 4.6305 16.979 4.51705 16.6479 4.70822Z" fill="white"/>
<path d="M12.5767 3.72776C12.9078 3.91893 13.3312 3.80548 13.5224 3.47438L14.2147 2.27525C14.4059 1.94414 14.2924 1.52073 13.9613 1.32956C13.6302 1.13839 13.2068 1.25184 13.0156 1.58294L12.3233 2.78207C12.1322 3.11318 12.2456 3.53659 12.5767 3.72776Z" fill="white"/>
<path d="M9.00075 4.15393C6.19686 4.15393 3.92383 6.42696 3.92383 9.23085C3.92383 11.0351 4.86657 12.6165 6.28529 13.5159C6.66569 13.757 6.94229 14.121 7.07194 14.5385H8.30844V10.9022L7.12658 9.72041C6.85621 9.45004 6.85621 9.01171 7.12658 8.74135C7.39695 8.47098 7.83527 8.47098 8.10564 8.74135L9.00075 9.63641L9.89581 8.74135C10.1662 8.47098 10.6045 8.47098 10.8749 8.74135C11.1452 9.01171 11.1452 9.45004 10.8749 9.72041L9.69306 10.9022V14.5385H10.9296C11.0592 14.121 11.3359 13.757 11.7162 13.5159C13.1349 12.6165 14.0777 11.0351 14.0777 9.23085C14.0777 6.42696 11.8046 4.15393 9.00075 4.15393Z" fill="white"/>
</svg>
