<svg width="22" height="21" viewBox="0 0 22 21" fill="none" xmlns="http://www.w3.org/2000/svg">
<path d="M22 9.42308C22 10.6131 21.0155 11.5769 19.8 11.5769H2.2C0.9845 11.5769 0 10.6131 0 9.42308C0 8.23308 0.9845 7.26923 2.2 7.26923H2.5542C3.0965 3.17477 6.6726 0 11 0C15.3274 0 18.9035 3.17477 19.4458 7.26923H19.8C21.0155 7.26923 22 8.23308 22 9.42308ZM19.8 13.1923C20.086 13.1923 20.361 13.16 20.625 13.1062V15.6262C20.625 18.5877 18.161 21 15.136 21C13.662 21 12.287 20.44 11.253 19.4277L11 19.18L10.747 19.4277C9.713 20.44 8.338 21 6.864 21C3.839 21 1.375 18.5877 1.375 15.6262V13.1062C1.639 13.16 1.914 13.1923 2.2 13.1923H19.8ZM8.525 16.9615C8.525 16.5157 8.1554 16.1538 7.7 16.1538H5.5C5.0446 16.1538 4.675 16.5157 4.675 16.9615C4.675 17.4074 5.0446 17.7692 5.5 17.7692H7.7C8.1554 17.7692 8.525 17.4074 8.525 16.9615ZM17.325 16.9615C17.325 16.5157 16.9554 16.1538 16.5 16.1538H14.3C13.8446 16.1538 13.475 16.5157 13.475 16.9615C13.475 17.4074 13.8446 17.7692 14.3 17.7692H16.5C16.9554 17.7692 17.325 17.4074 17.325 16.9615Z" fill="white"/>
</svg>
