<svg width="24" height="18" viewBox="0 0 24 18" fill="none" xmlns="http://www.w3.org/2000/svg">
<path fill-rule="evenodd" clip-rule="evenodd" d="M12.4574 2.61708C13.5446 0.87236 14.7482 0 16.8896 0C19.5887 0 21.7792 2.03759 21.7792 4.54819C21.7792 5.33002 21.6342 6.11148 21.3703 6.89309C21.216 6.67564 21.0056 6.37678 20.9503 6.22672L20.3603 3.69553C20.2437 3.19242 19.9401 2.75821 19.5164 2.48842C19.0927 2.21862 18.5835 2.13534 18.1009 2.2569C17.6182 2.37845 17.2017 2.69489 16.9429 3.13659C16.6841 3.5783 16.6042 4.10909 16.7208 4.6122L17.2658 7.02022C17.1379 7.01839 17.0095 7.01323 16.9127 7.01313L13.9977 7.00901C13.0727 7.00771 12.5071 7.67096 12.5119 8.65376C12.5104 8.87052 12.5517 9.08527 12.6333 9.28465C12.7149 9.48403 12.8349 9.66378 12.986 9.81269C12.9061 10.025 12.8665 10.2515 12.8695 10.4796C12.8661 10.7263 12.9212 10.9701 13.03 11.1893C13.1388 11.4084 13.2979 11.5961 13.4931 11.7357C13.4266 11.9179 13.3928 12.1112 13.3935 12.3061C13.3902 12.5494 13.4436 12.7898 13.5493 13.0067C13.655 13.2236 13.8097 13.4105 14 13.5512C13.929 13.7362 13.8934 13.934 13.8954 14.1333C13.899 14.4356 13.9813 14.7312 14.1337 14.9885C14.2861 15.2457 14.5027 15.4549 14.7604 15.5936C13.9796 16.3473 13.1731 17.1011 12.3633 17.8548C12.2636 17.9483 12.1342 18 12 18C11.8659 18 11.7365 17.9483 11.6367 17.8548C10.8267 17.1011 10.0205 16.3473 9.23957 15.5936C9.49728 15.4549 9.71392 15.2457 9.8663 14.9885C10.0187 14.7312 10.101 14.4356 10.1046 14.1333C10.1066 13.934 10.0711 13.7362 10 13.5511C10.1903 13.4104 10.345 13.2236 10.4506 13.0068C10.5563 12.79 10.6098 12.5496 10.6065 12.3064C10.6072 12.1115 10.5734 11.9181 10.5068 11.7359C10.702 11.5964 10.8611 11.4086 10.9699 11.1895C11.0787 10.9703 11.1339 10.7265 11.1304 10.4798C11.1334 10.2517 11.0939 10.0252 11.0139 9.8129C11.165 9.66399 11.2851 9.48424 11.3667 9.28486C11.4482 9.08548 11.4896 8.87073 11.4881 8.65397C11.4928 7.67091 10.927 7.00792 10.0022 7.00922L7.08722 7.01329C6.99047 7.01329 6.86222 7.0185 6.73417 7.02037L7.27917 4.61235C7.39578 4.10925 7.31589 3.57845 7.05708 3.13675C6.79826 2.69505 6.38172 2.37861 5.8991 2.25705C5.41647 2.13549 4.90728 2.21877 4.48356 2.48857C4.05984 2.75837 3.75628 3.19258 3.63967 3.69569L3.05002 6.22672C2.99462 6.37678 2.78427 6.67564 2.63002 6.89309C2.36602 6.11127 2.22107 5.32986 2.22107 4.54819C2.22107 2.03759 4.41157 0 7.11062 0C9.25207 0 10.4556 0.87236 11.5428 2.61708C11.5922 2.69683 11.6599 2.76241 11.7398 2.80783C11.8197 2.85324 11.9093 2.87704 12.0003 2.87704C12.0914 2.87704 12.1809 2.85324 12.2608 2.80783C12.3408 2.76241 12.4085 2.69683 12.4578 2.61708H12.4574ZM22.1037 14.996L23.4494 14.9994C23.5899 14.9995 23.7247 14.9416 23.8243 14.8383C23.924 14.735 23.9803 14.5949 23.9811 14.4484C23.9874 12.5463 23.9937 10.6442 24 8.74211C24.0006 8.66936 23.9873 8.59721 23.9609 8.52985C23.9346 8.46248 23.8957 8.40122 23.8465 8.34963C23.7973 8.29803 23.7387 8.25711 23.6743 8.22925C23.6098 8.20138 23.5407 8.18711 23.4709 8.18727L22.1252 8.18384C21.9847 8.18376 21.8499 8.24169 21.7503 8.34496C21.6506 8.44822 21.5943 8.58841 21.5935 8.73487C21.5872 10.6369 21.5809 12.539 21.5746 14.4411C21.574 14.5139 21.5873 14.586 21.6136 14.6534C21.64 14.7208 21.6789 14.782 21.7281 14.8336C21.7773 14.8852 21.8358 14.9261 21.9003 14.954C21.9648 14.9819 22.0339 14.9961 22.1037 14.996ZM21.1915 7.90097C20.8215 7.3047 20.3453 6.72182 20.2728 6.41076L19.68 3.86779C19.6037 3.55625 19.4126 3.28864 19.1482 3.12299C18.8838 2.95734 18.5674 2.90701 18.2677 2.9829C17.9679 3.0588 17.709 3.25481 17.5469 3.52843C17.3849 3.80205 17.3329 4.13123 17.4021 4.44457L18.0297 7.21839C18.0481 7.29483 18.0458 7.37506 18.0232 7.45025C18.0007 7.52545 17.9586 7.59269 17.9017 7.64458C17.7846 7.75446 17.7067 7.73715 16.9117 7.74278L14.0279 7.73866C13.4188 7.79433 13.2095 8.14761 13.2119 8.65001C13.2143 9.15241 13.6211 9.61734 14.2903 9.55849C13.842 9.65862 13.5671 9.97343 13.5696 10.4758C13.572 10.9782 13.9787 11.388 14.7311 11.3848C14.4902 11.4876 14.0911 11.8002 14.0935 12.3026C14.0959 12.805 14.5027 13.2148 15.244 13.2117C15.0158 13.344 14.593 13.6272 14.5954 14.1295C14.6006 14.3716 14.6949 14.6024 14.8588 14.774C15.0226 14.9457 15.2434 15.0453 15.4756 15.0521L20.3623 15.0653C20.47 15.0652 20.5762 15.0386 20.6721 14.9876C20.7681 14.9367 20.8512 14.8628 20.9146 14.7721C20.8875 14.6632 20.8741 14.5511 20.8746 14.4385C20.8809 12.5364 20.8872 10.6343 20.8936 8.73226C20.8943 8.42685 21.0001 8.13183 21.1916 7.90071L21.1915 7.90097ZM1.89637 14.9961C1.96614 14.9963 2.03525 14.982 2.0997 14.9542C2.16416 14.9263 2.22267 14.8854 2.27187 14.8338C2.32107 14.7823 2.35998 14.721 2.38634 14.6537C2.41271 14.5864 2.426 14.5142 2.42547 14.4415C2.41917 12.5394 2.41285 10.6373 2.40652 8.73523C2.40582 8.58877 2.34951 8.44856 2.24991 8.34526C2.15031 8.24196 2.01552 8.18398 1.87502 8.18399L0.529368 8.18743C0.459554 8.18723 0.390395 8.20146 0.325894 8.22931C0.261393 8.25716 0.202831 8.29807 0.1536 8.34967C0.104369 8.40127 0.0654452 8.46254 0.0390827 8.52993C0.0127201 8.59732 -0.000557615 8.66949 1.79411e-05 8.74227C0.00628461 10.6443 0.0125846 12.5464 0.018918 14.4486C0.0196583 14.595 0.0760144 14.7352 0.175657 14.8385C0.2753 14.9417 0.410119 14.9996 0.550618 14.9995L1.89637 14.9961ZM2.80852 7.90097C3.00005 8.13209 3.10577 8.42711 3.10652 8.73252C3.11282 10.6346 3.11914 12.5367 3.12547 14.4388C3.12605 14.5513 3.1126 14.6634 3.08547 14.7723C3.14891 14.8631 3.23199 14.9369 3.32796 14.9878C3.42393 15.0388 3.53007 15.0654 3.63777 15.0655L8.52447 15.0523C8.75664 15.0454 8.97742 14.9459 9.14119 14.7742C9.30496 14.6025 9.39921 14.3718 9.40447 14.1297C9.40687 13.6274 8.98407 13.3442 8.75582 13.2119C9.49717 13.2147 9.90387 12.8053 9.90632 12.3029C9.90877 11.8004 9.50962 11.4878 9.26872 11.385C10.0211 11.388 10.4278 10.9784 10.4303 10.476C10.4327 9.97364 10.1579 9.65883 9.70952 9.5587C10.3787 9.61755 10.7855 9.15273 10.7879 8.65022C10.7904 8.14772 10.5811 7.79449 9.97192 7.73887L7.08812 7.74294C6.29312 7.73731 6.21522 7.75461 6.09812 7.64479C6.04125 7.5929 5.9992 7.52565 5.97662 7.45046C5.95404 7.37527 5.95179 7.29503 5.97012 7.21859L6.59792 4.44457C6.63632 4.28792 6.64451 4.12489 6.62202 3.96492C6.59953 3.80495 6.5468 3.65122 6.4669 3.51264C6.387 3.37407 6.28152 3.2534 6.15655 3.15763C6.03159 3.06186 5.88964 2.9929 5.73892 2.95474C5.58821 2.91657 5.43172 2.90997 5.27854 2.93531C5.12536 2.96065 4.97852 3.01743 4.84655 3.10236C4.71457 3.18729 4.60007 3.29867 4.50969 3.43007C4.41931 3.56146 4.35484 3.71024 4.32002 3.86779L3.72727 6.41076C3.65502 6.72182 3.17867 7.3047 2.80852 7.90097Z" fill="white"/>
</svg>
