<svg width="25" height="24" viewBox="0 0 25 24" fill="none" xmlns="http://www.w3.org/2000/svg">
<path d="M3.78958 16.1093L9.23922 16.1093L7.96224 20.5512C7.8903 20.7994 7.85432 21.0477 7.85432 21.2959C7.85432 22.741 9.04137 24 10.6061 24C11.4964 24 12.3327 23.5656 12.8453 22.8474L17 17.05L17 0L6.21764 -9.42624e-07C4.518 -1.09121e-06 3.02519 1.1171 2.56656 2.7307L0.138501 11.3838C-0.526965 13.7599 1.28958 16.1093 3.78958 16.1093Z" fill="#A9A9A9"/>
<path d="M22.3105 16C23.7934 16 25 14.8465 25 13.4287L25 2.57127C25 1.15355 23.7934 -1.05482e-07 22.3013 -2.35926e-07L18 -6.11959e-07L18 16L22.3105 16ZM20.5578 3.06703L21.7542 3.06703C22.212 3.06703 22.5832 3.42191 22.5832 3.85955C22.5832 4.29719 22.212 4.65207 21.7542 4.65206L20.5578 4.65206C20.1 4.65206 19.7288 4.29719 19.7288 3.85955C19.7288 3.42191 20.1 3.06703 20.5578 3.06703Z" fill="#A9A9A9"/>
</svg>
