<svg width="25" height="24" viewBox="0 0 25 24" fill="none" xmlns="http://www.w3.org/2000/svg">
<path d="M21.2104 7.89065L15.7608 7.89065L17.0378 3.44884C17.1097 3.20059 17.1457 2.95235 17.1457 2.7041C17.1457 1.25896 15.9586 0 14.3939 0C13.5036 0 12.6673 0.434429 12.1547 1.15257L8 6.94998L8 24H18.7824C20.482 24 21.9748 22.8829 22.4334 21.2693L24.8615 12.6162C25.527 10.2401 23.7104 7.89065 21.2104 7.89065Z" fill="#00954D"/>
<path d="M2.68947 8C1.20658 8 0 9.15355 0 10.5713L0 21.4287C0 22.8464 1.20658 24 2.69868 24H7L7 8L2.68947 8ZM4.44224 20.933H3.24579C2.78803 20.933 2.41684 20.5781 2.41684 20.1404C2.41684 19.7028 2.78803 19.3479 3.24579 19.3479H4.44224C4.9 19.3479 5.27118 19.7028 5.27118 20.1404C5.27118 20.5781 4.9 20.933 4.44224 20.933Z" fill="#00954D"/>
</svg>
