<svg width="20" height="20" viewBox="0 0 20 20" fill="none" xmlns="http://www.w3.org/2000/svg">
<circle cx="10" cy="10" r="10" fill="#00954D"/>
<path d="M15 5.61942C15 5.45238 14.935 5.29527 14.8169 5.17726C14.5807 4.94091 14.1693 4.94091 13.9331 5.17726L10 9.11271L6.06689 5.17726C5.83069 4.94091 5.41931 4.94091 5.1831 5.17726C5.06501 5.29527 5 5.45238 5 5.61942C5 5.78644 5.06501 5.94355 5.18311 6.06157L9.11621 9.99702L5.18311 13.9325C5.06501 14.0505 5 14.2076 5 14.3746C5 14.5416 5.06501 14.6988 5.18311 14.8168C5.41931 15.0531 5.83069 15.0531 6.0669 14.8168L10 10.8813L13.9331 14.8168C14.0512 14.9349 14.2081 15 14.375 15C14.5419 15 14.6988 14.9349 14.8169 14.8168C14.935 14.6988 15 14.5416 15 14.3746C15 14.2076 14.935 14.0505 14.8169 13.9325L10.8838 9.99702L14.8169 6.06158C14.935 5.94355 15 5.78644 15 5.61942Z" fill="white"/>
</svg>
