<svg width="60" height="60" viewBox="0 0 60 60" fill="none" xmlns="http://www.w3.org/2000/svg">
<rect width="60" height="60" rx="7" fill="#00954D"/>
<path d="M42.7279 17.2721C39.3282 13.8723 34.8079 12 30 12C25.1921 12 20.6718 13.8723 17.2721 17.2721C13.8723 20.6718 12 25.1921 12 30C12 34.8079 13.8723 39.3282 17.2721 42.7279C20.6718 46.1277 25.1921 48 30 48C34.8079 48 39.3282 46.1277 42.7279 42.7279C46.1277 39.3282 48 34.8079 48 30C48 25.1921 46.1277 20.6718 42.7279 17.2721ZM30 45.8934C21.2365 45.8934 14.1066 38.7635 14.1066 30C14.1066 21.2365 21.2365 14.1066 30 14.1066C38.7635 14.1066 45.8934 21.2365 45.8934 30C45.8934 38.7635 38.7635 45.8934 30 45.8934Z" fill="white"/>
<path d="M40.7881 22.0006L40.0605 21.0217L21.0215 40.0608L22.0004 40.7883C24.3303 42.5201 27.0966 43.4355 29.9998 43.4355C37.4081 43.4355 43.4352 37.4084 43.4352 30C43.4352 27.0969 42.5198 24.3305 40.7881 22.0006ZM29.9998 41.3289C27.9662 41.3289 26.0123 40.796 24.2831 39.7781L39.7779 24.2833C40.7958 26.0125 41.3286 27.9665 41.3286 30C41.3286 36.2469 36.2466 41.3289 29.9998 41.3289Z" fill="white"/>
<path d="M37.1543 18.6332C35.0114 17.2797 32.5373 16.5645 29.9989 16.5645C22.5906 16.5645 16.5635 22.5916 16.5635 29.9999C16.5635 32.5383 17.2787 35.0127 18.6322 37.1553L19.3359 38.2693L38.2683 19.3366L37.1543 18.6332ZM19.7671 34.8589C19.0467 33.3472 18.6701 31.6904 18.6701 29.9999C18.6701 23.7531 23.7521 18.6711 29.9989 18.6711C31.6895 18.6711 33.3462 19.0476 34.8576 19.7681L19.7671 34.8589Z" fill="white"/>
</svg>
