<svg width="60" height="60" viewBox="0 0 60 60" fill="none" xmlns="http://www.w3.org/2000/svg">
<rect width="60" height="60" rx="7" fill="#00954D"/>
<path d="M48.3651 32.2698L43.9979 27.1417C43.7714 26.8759 43.4058 26.7946 43.0881 26.9395C42.7704 27.0844 42.5918 27.4135 42.644 27.7589L42.8859 29.358C40.154 28.0395 37.5592 26.5861 35.1596 25.0301C31.9448 22.9453 29.0173 20.6466 26.4585 18.1976C23.2848 15.1605 21.4806 12.6437 20.8523 11.7022C20.6171 11.35 20.2586 11.1113 19.8425 11.0297C19.4272 10.9487 19.006 11.0346 18.6563 11.2716C17.9433 11.755 17.752 12.7312 18.23 13.4476C19.0793 14.721 20.9887 17.3223 24.2337 20.4347C26.9359 23.0266 30.0223 25.4553 33.4076 27.6536C36.0617 29.3771 38.9382 30.977 41.9673 32.4156L40.6625 33.6978C40.4135 33.9425 40.3582 34.313 40.5253 34.6196C40.6639 34.8737 40.9223 35.0234 41.2006 35.0234C41.258 35.0234 41.3161 35.0171 41.3743 35.004L47.9459 33.5258C48.2125 33.4659 48.4233 33.2754 48.51 33.0162C48.5964 32.7567 48.5422 32.4777 48.3651 32.2698ZM42.2348 33.6881L43.2966 32.6446C43.4246 32.5185 43.4828 32.3377 43.4523 32.1606C43.4215 31.9835 43.3057 31.8326 43.1426 31.7573C39.8976 30.2552 36.8229 28.5654 34.004 26.735C30.6766 24.574 27.6443 22.1887 24.9917 19.6444C21.8217 16.6042 19.9654 14.0762 19.1412 12.8399C18.9957 12.622 19.0542 12.3251 19.2709 12.1779C19.3511 12.1237 19.4438 12.0955 19.5387 12.0955C19.5698 12.0955 19.6012 12.0986 19.6323 12.1046C19.7598 12.1294 19.8696 12.2027 19.9414 12.3105C20.59 13.2816 22.4492 15.8767 25.701 18.989C28.3094 21.4851 31.2912 23.8268 34.5638 25.949C37.2755 27.7075 40.2315 29.3363 43.3496 30.7902C43.5324 30.8755 43.7475 30.8533 43.9089 30.7326C44.0706 30.6117 44.1527 30.4118 44.1225 30.2121L43.8955 28.7108L47.1861 32.5744L42.2348 33.6881ZM47.5312 32.98C47.5312 32.9797 47.5312 32.9797 47.5309 32.9797L47.5312 32.98Z" fill="white"/>
<path d="M47.1426 44.5725H44.4244V43.6482C44.4244 43.3456 44.1794 43.1006 43.8768 43.1006C43.5743 43.1006 43.3293 43.3456 43.3293 43.6482V44.5725H40.2779V39.9512H43.3293V41.0854C43.3293 41.388 43.5743 41.633 43.8768 41.633C44.1794 41.633 44.4244 41.388 44.4244 41.0854V39.8194C44.4244 39.2881 43.9921 38.856 43.461 38.856H40.1462C39.6149 38.856 39.1828 39.2881 39.1828 39.8194V44.5725H36.6129V33.6988C36.6129 33.1675 36.1808 32.7354 35.6495 32.7354H32.3346C31.8036 32.7354 31.3712 33.1675 31.3712 33.6988V44.5725H28.8016V27.5622C28.8016 27.0312 28.3692 26.5988 27.8379 26.5988H24.5233C23.992 26.5988 23.5599 27.0312 23.5599 27.5622V44.5725H20.99V27.3018C20.99 26.9992 20.745 26.7542 20.4424 26.7542C20.1398 26.7542 19.8948 26.9992 19.8948 27.3018V44.5725H16.8432V21.5893H19.8946V24.7539C19.8946 25.0562 20.1398 25.3014 20.4421 25.3014C20.7447 25.3014 20.9897 25.0562 20.9897 24.7539V21.4575C20.9897 20.9262 20.5576 20.4941 20.0263 20.4941H16.7115C16.1801 20.4941 15.7481 20.9262 15.7481 21.4575V44.5725H13.0301C12.462 44.5725 12 45.0346 12 45.6024V47.3515C12 47.9196 12.462 48.3816 13.0301 48.3816H47.1424C47.7105 48.3816 48.1725 47.9196 48.1725 47.3515V45.6024C48.1725 45.0346 47.7105 44.5725 47.1426 44.5725ZM32.4664 33.8306H35.5177V44.5723H32.4664V33.8306ZM24.6548 27.694H27.7061V44.5725H24.6548V27.694ZM47.0773 47.2865H13.0952V45.6677H47.0773V47.2865Z" fill="white"/>
</svg>
