<svg width="60" height="60" viewBox="0 0 60 60" fill="none" xmlns="http://www.w3.org/2000/svg">
<rect width="60" height="60" rx="7" fill="#00954D"/>
<path d="M33.1529 36.0179C29.0208 34.267 25.7347 30.9733 23.9934 26.8372L28.8272 22.0034L19.9359 13.1121L15.4357 17.611C14.6546 18.3956 14.0371 19.3275 13.6191 20.3527C13.201 21.3779 12.9907 22.4759 13.0003 23.5829C13.0003 33.8693 26.1307 46.9997 36.4171 46.9997C37.524 47.0096 38.6218 46.7994 39.6468 46.3813C40.6718 45.9632 41.6034 45.3456 42.3876 44.5643L46.8879 40.0641L37.9966 31.1742L33.1529 36.0179ZM40.3794 42.559C39.8579 43.075 39.2391 43.4823 38.5589 43.7574C37.8787 44.0324 37.1507 44.1697 36.4171 44.1613C27.5698 44.1613 15.8387 32.4288 15.8387 23.5829C15.8304 22.849 15.9678 22.1207 16.2431 21.4402C16.5184 20.7598 16.926 20.1408 17.4424 19.6191L19.9359 17.1256L24.8137 22.0034L20.6469 26.1687L20.9961 27.0401C22.0197 29.7782 23.6198 32.2642 25.6881 34.3299C27.7565 36.3955 30.2446 37.9924 32.984 39.0124L33.8441 39.3403L37.9966 35.1877L42.873 40.0641L40.3794 42.559ZM42.6814 19.3254L47 23.644L44.9933 25.6507L40.6746 21.3321L36.356 25.6507L34.3493 23.644L38.6679 19.3254L34.3493 15.0067L36.356 13L40.6746 17.3186L44.9933 13L47 15.0067L42.6814 19.3254Z" fill="white"/>
</svg>
