<svg width="60" height="60" viewBox="0 0 60 60" fill="none" xmlns="http://www.w3.org/2000/svg">
<rect width="60" height="60" rx="7" fill="#00954D"/>
<path d="M22.4613 43.7293C21.876 44.5999 21.334 45.7999 21.334 48.6666C21.334 49.0202 21.4745 49.3593 21.7245 49.6094C21.9746 49.8594 22.3137 49.9999 22.6673 49.9999H37.334C37.6876 49.9999 38.0267 49.8594 38.2768 49.6094C38.5268 49.3593 38.6673 49.0202 38.6673 48.6666C38.6673 45.7999 38.1253 44.5999 37.54 43.7293C36.7262 42.5398 35.4741 41.7214 34.058 41.4533C34.584 40.8356 34.9618 40.1059 35.1627 39.3199C35.74 39.2875 36.2844 39.0407 36.6894 38.6279C37.0944 38.2152 37.3307 37.6661 37.3521 37.0883C37.3736 36.5104 37.1786 35.9454 36.8053 35.5038C36.432 35.0621 35.9073 34.7757 35.334 34.7006V34.6666C35.334 33.2521 34.7721 31.8955 33.7719 30.8953C32.7717 29.8952 31.4151 29.3333 30.0007 29.3333C28.5862 29.3333 27.2296 29.8952 26.2294 30.8953C25.2292 31.8955 24.6673 33.2521 24.6673 34.6666V34.7006C24.0975 34.7796 23.5773 35.0673 23.2076 35.5081C22.8378 35.9488 22.645 36.5112 22.6663 37.086C22.6876 37.6609 22.9217 38.2074 23.3231 38.6195C23.7244 39.0317 24.2645 39.2801 24.8387 39.3166C25.0395 40.1026 25.4173 40.8323 25.9433 41.4499C24.5267 41.7188 23.2745 42.5385 22.4613 43.7293ZM36.434 44.4739C36.9013 45.1679 37.334 46.1559 37.334 48.6666H22.6673C22.6673 46.1559 23.1 45.1679 23.5673 44.4739C23.9584 43.9086 24.4825 43.4481 25.0934 43.1329C25.7043 42.8178 26.3833 42.6576 27.0707 42.6666H27.4247C28.2128 43.1038 29.0993 43.3333 30.0007 43.3333C30.902 43.3333 31.7885 43.1038 32.5767 42.6666H32.934C33.6208 42.6582 34.2991 42.8186 34.9094 43.1337C35.5197 43.4488 36.0432 43.9091 36.434 44.4739ZM26.0007 36.0539C27.3227 36.1266 29.9867 36.1139 31.2607 34.9739C31.2887 34.9486 31.316 34.9226 31.3427 34.8966C31.6442 35.3495 32.0358 35.7355 32.4931 36.0304C32.9505 36.3253 33.4636 36.5228 34.0007 36.6106V37.9999C34.0007 39.0608 33.5792 40.0782 32.8291 40.8283C32.0789 41.5785 31.0615 41.9999 30.0007 41.9999C28.9398 41.9999 27.9224 41.5785 27.1722 40.8283C26.4221 40.0782 26.0007 39.0608 26.0007 37.9999V36.0539ZM36.0007 36.9999C36.0006 37.2067 35.9365 37.4084 35.8171 37.5772C35.6977 37.746 35.5289 37.8737 35.334 37.9426V36.0573C35.5289 36.1262 35.6977 36.2538 35.8171 36.4227C35.9365 36.5915 36.0006 36.7931 36.0007 36.9999ZM30.0007 30.6666C31.0612 30.6676 32.078 31.0894 32.8279 31.8393C33.5778 32.5892 33.9996 33.606 34.0007 34.6666V35.2539C33.5156 35.1055 33.0761 34.8367 32.7229 34.4727C32.3697 34.1087 32.1144 33.6612 31.9807 33.1719C31.9411 33.0142 31.8453 32.8763 31.7112 32.7843C31.5772 32.6923 31.4141 32.6525 31.2527 32.6723C31.0913 32.6921 30.9427 32.7703 30.8349 32.892C30.7271 33.0137 30.6675 33.1706 30.6673 33.3333C30.6705 33.4564 30.6456 33.5787 30.5944 33.6907C30.5432 33.8028 30.4671 33.9017 30.372 33.9799C29.588 34.6819 27.4827 34.8059 26.0007 34.7199V34.6666C26.0017 33.606 26.4235 32.5892 27.1734 31.8393C27.9233 31.0894 28.9401 30.6676 30.0007 30.6666ZM24.0007 36.9999C24.0007 36.7931 24.0648 36.5915 24.1842 36.4227C24.3036 36.2538 24.4724 36.1262 24.6673 36.0573V37.9426C24.4724 37.8737 24.3036 37.746 24.1842 37.5772C24.0648 37.4084 24.0007 37.2067 24.0007 36.9999Z" fill="white"/>
<path d="M48 15.3333H38.6667V12C38.6667 11.4696 38.456 10.9609 38.0809 10.5858C37.7058 10.2107 37.1971 10 36.6667 10H23.3333C22.8029 10 22.2942 10.2107 21.9191 10.5858C21.544 10.9609 21.3333 11.4696 21.3333 12V15.3333H12C11.4696 15.3333 10.9609 15.544 10.5858 15.9191C10.2107 16.2942 10 16.8029 10 17.3333V27.3333C10 27.8638 10.2107 28.3725 10.5858 28.7475C10.9609 29.1226 11.4696 29.3333 12 29.3333H19.1167L22.4287 31.7333C22.6411 31.8842 22.8909 31.9736 23.1508 31.9917C23.4107 32.0098 23.6706 31.9559 23.9019 31.836C24.1331 31.716 24.3269 31.5347 24.4618 31.3118C24.5967 31.0889 24.6676 30.8332 24.6667 30.5727V29.3333H25.3333C25.8638 29.3333 26.3725 29.1226 26.7475 28.7475C27.1226 28.3725 27.3333 27.8638 27.3333 27.3333V24H27.6947L29.012 25.5333C29.1314 25.6797 29.2819 25.7977 29.4526 25.8787C29.6232 25.9597 29.8098 26.0018 29.9987 26.0018C30.1876 26.0018 30.3741 25.9597 30.5448 25.8787C30.7154 25.7977 30.8659 25.6797 30.9853 25.5333L32.3053 24H32.6667V27.3333C32.6667 27.8638 32.8774 28.3725 33.2525 28.7475C33.6275 29.1226 34.1362 29.3333 34.6667 29.3333H35.3333V30.5727C35.3319 30.8341 35.4027 31.0909 35.5381 31.3146C35.6734 31.5383 35.868 31.7203 36.1003 31.8403C36.3326 31.9603 36.5935 32.0138 36.8543 31.9948C37.1151 31.9758 37.3656 31.8851 37.578 31.7327L40.8833 29.3333H48C48.5304 29.3333 49.0391 29.1226 49.4142 28.7475C49.7893 28.3725 50 27.8638 50 27.3333V17.3333C50 16.8029 49.7893 16.2942 49.4142 15.9191C49.0391 15.544 48.5304 15.3333 48 15.3333ZM26 27.3333C26 27.5101 25.9298 27.6797 25.8047 27.8047C25.6797 27.9298 25.5101 28 25.3333 28H24C23.8232 28 23.6536 28.0702 23.5286 28.1953C23.4036 28.3203 23.3333 28.4899 23.3333 28.6667V30.5727C23.3348 30.5896 23.3311 30.6066 23.3228 30.6215C23.3144 30.6363 23.3019 30.6483 23.2867 30.656C23.2743 30.6636 23.26 30.6674 23.2455 30.6668C23.231 30.6662 23.217 30.6613 23.2053 30.6527L19.7247 28.1267C19.6108 28.0443 19.4739 27.9999 19.3333 28H12C11.8232 28 11.6536 27.9298 11.5286 27.8047C11.4036 27.6797 11.3333 27.5101 11.3333 27.3333V17.3333C11.3333 17.1565 11.4036 16.987 11.5286 16.8619C11.6536 16.7369 11.8232 16.6667 12 16.6667H21.3333V22C21.3333 22.5304 21.544 23.0391 21.9191 23.4142C22.2942 23.7893 22.8029 24 23.3333 24H26V27.3333ZM32 22.6667C31.904 22.6667 31.8092 22.6874 31.722 22.7275C31.6348 22.7675 31.5572 22.8259 31.4947 22.8987L30 24.634L28.506 22.9007C28.4435 22.8275 28.366 22.7686 28.2786 22.7282C28.1913 22.6878 28.0962 22.6668 28 22.6667H23.3333C23.1565 22.6667 22.987 22.5964 22.8619 22.4714C22.7369 22.3464 22.6667 22.1768 22.6667 22V12C22.6667 11.8232 22.7369 11.6536 22.8619 11.5286C22.987 11.4036 23.1565 11.3333 23.3333 11.3333H36.6667C36.8435 11.3333 37.013 11.4036 37.1381 11.5286C37.2631 11.6536 37.3333 11.8232 37.3333 12V22C37.3333 22.1768 37.2631 22.3464 37.1381 22.4714C37.013 22.5964 36.8435 22.6667 36.6667 22.6667H32ZM48.6667 27.3333C48.6667 27.5101 48.5964 27.6797 48.4714 27.8047C48.3464 27.9298 48.1768 28 48 28H40.6667C40.5261 27.9999 40.3892 28.0443 40.2753 28.1267L36.8 30.6487C36.7877 30.6588 36.7727 30.6649 36.7568 30.6662C36.741 30.6675 36.7251 30.664 36.7113 30.656C36.6961 30.6483 36.6836 30.6363 36.6753 30.6215C36.6669 30.6066 36.6632 30.5896 36.6647 30.5727V28.6667C36.6647 28.4899 36.5944 28.3203 36.4694 28.1953C36.3444 28.0702 36.1748 28 35.998 28H34.6667C34.4899 28 34.3203 27.9298 34.1953 27.8047C34.0702 27.6797 34 27.5101 34 27.3333V24H36.6667C37.1971 24 37.7058 23.7893 38.0809 23.4142C38.456 23.0391 38.6667 22.5304 38.6667 22V16.6667H48C48.1768 16.6667 48.3464 16.7369 48.4714 16.8619C48.5964 16.987 48.6667 17.1565 48.6667 17.3333V27.3333Z" fill="white"/>
<path d="M17.1437 18.0414C16.7592 17.9713 16.364 17.9866 15.9861 18.0862C15.6081 18.1858 15.2567 18.3673 14.9567 18.6178C14.6567 18.8683 14.4154 19.1816 14.2499 19.5357C14.0844 19.8897 13.9988 20.2759 13.999 20.6667C13.999 20.8435 14.0693 21.0131 14.1943 21.1381C14.3193 21.2631 14.4889 21.3334 14.6657 21.3334C14.8425 21.3334 15.0121 21.2631 15.1371 21.1381C15.2621 21.0131 15.3324 20.8435 15.3324 20.6667C15.3322 20.4705 15.3753 20.2768 15.4586 20.0992C15.5419 19.9216 15.6634 19.7646 15.8144 19.6394C15.9653 19.5141 16.1421 19.4238 16.332 19.3747C16.5219 19.3256 16.7203 19.319 16.913 19.3554C17.1768 19.4067 17.4193 19.5357 17.6093 19.7257C17.7994 19.9158 17.9283 20.1582 17.9797 20.422C18.0425 20.7541 17.9768 21.0976 17.796 21.3831C17.6152 21.6686 17.3327 21.8748 17.0057 21.96C16.7214 22.0261 16.4676 22.1858 16.2851 22.4135C16.1025 22.6411 16.0018 22.9235 15.999 23.2154V24C15.999 24.1768 16.0693 24.3464 16.1943 24.4714C16.3193 24.5965 16.4889 24.6667 16.6657 24.6667C16.8425 24.6667 17.0121 24.5965 17.1371 24.4714C17.2621 24.3464 17.3324 24.1768 17.3324 24L17.3397 23.2474C17.9918 23.0795 18.5559 22.6703 18.918 22.1025C19.28 21.5348 19.4131 20.8508 19.2904 20.1887C19.1908 19.656 18.9326 19.1659 18.5495 18.7827C18.1663 18.3995 17.6763 18.1411 17.1437 18.0414Z" fill="white"/>
<path d="M16.6676 26.6666C17.0358 26.6666 17.3343 26.3681 17.3343 25.9999C17.3343 25.6317 17.0358 25.3333 16.6676 25.3333C16.2995 25.3333 16.001 25.6317 16.001 25.9999C16.001 26.3681 16.2995 26.6666 16.6676 26.6666Z" fill="white"/>
<path d="M43.8117 18.0414C43.4272 17.9713 43.032 17.9866 42.654 18.0862C42.2761 18.1858 41.9247 18.3673 41.6247 18.6178C41.3246 18.8683 41.0833 19.1816 40.9179 19.5357C40.7524 19.8897 40.6667 20.2759 40.667 20.6667C40.667 20.8435 40.7372 21.0131 40.8623 21.1381C40.9873 21.2631 41.1568 21.3334 41.3337 21.3334C41.5105 21.3334 41.68 21.2631 41.8051 21.1381C41.9301 21.0131 42.0003 20.8435 42.0003 20.6667C42.0002 20.4705 42.0433 20.2768 42.1266 20.0992C42.2099 19.9216 42.3314 19.7646 42.4823 19.6394C42.6333 19.5141 42.81 19.4238 42.9999 19.3747C43.1898 19.3256 43.3882 19.319 43.581 19.3554C43.8448 19.4067 44.0873 19.5357 44.2773 19.7257C44.4673 19.9158 44.5963 20.1582 44.6477 20.422C44.7105 20.7541 44.6448 21.0976 44.464 21.3831C44.2832 21.6686 44.0007 21.8748 43.6737 21.96C43.3894 22.0261 43.1356 22.1858 42.953 22.4135C42.7705 22.6411 42.6697 22.9235 42.667 23.2154V24C42.667 24.1768 42.7372 24.3464 42.8623 24.4714C42.9873 24.5965 43.1568 24.6667 43.3337 24.6667C43.5105 24.6667 43.68 24.5965 43.8051 24.4714C43.9301 24.3464 44.0003 24.1768 44.0003 24L44.0077 23.2474C44.6598 23.0795 45.2238 22.6703 45.5859 22.1025C45.948 21.5348 46.0811 20.8508 45.9583 20.1887C45.8588 19.656 45.6005 19.1659 45.2174 18.7827C44.8343 18.3995 44.3443 18.1411 43.8117 18.0414Z" fill="white"/>
<path d="M43.3327 26.6666C43.7009 26.6666 43.9993 26.3681 43.9993 25.9999C43.9993 25.6317 43.7009 25.3333 43.3327 25.3333C42.9645 25.3333 42.666 25.6317 42.666 25.9999C42.666 26.3681 42.9645 26.6666 43.3327 26.6666Z" fill="white"/>
<path d="M30.4787 12.708C30.0941 12.6379 29.6989 12.6532 29.321 12.7529C28.9431 12.8525 28.5917 13.0339 28.2917 13.2844C27.9916 13.5349 27.7503 13.8482 27.5848 14.2023C27.4194 14.5564 27.3337 14.9425 27.334 15.3333C27.334 15.5101 27.4042 15.6797 27.5292 15.8047C27.6543 15.9297 27.8238 16 28.0007 16C28.1775 16 28.347 15.9297 28.4721 15.8047C28.5971 15.6797 28.6673 15.5101 28.6673 15.3333C28.6672 15.1372 28.7103 14.9434 28.7936 14.7658C28.8769 14.5882 28.9984 14.4312 29.1493 14.306C29.3003 14.1808 29.477 14.0904 29.6669 14.0413C29.8568 13.9922 30.0552 13.9856 30.248 14.022C30.5118 14.0733 30.7543 14.2023 30.9443 14.3923C31.1343 14.5824 31.2633 14.8248 31.3147 15.0887C31.3774 15.4207 31.3118 15.7642 31.131 16.0497C30.9502 16.3353 30.6677 16.5415 30.3407 16.6267C30.0564 16.6927 29.8026 16.8524 29.62 17.0801C29.4375 17.3077 29.3367 17.5902 29.334 17.882V18.6667C29.334 18.8435 29.4042 19.013 29.5292 19.1381C29.6543 19.2631 29.8238 19.3333 30.0007 19.3333C30.1775 19.3333 30.347 19.2631 30.4721 19.1381C30.5971 19.013 30.6673 18.8435 30.6673 18.6667L30.6747 17.914C31.3268 17.7461 31.8908 17.3369 32.2529 16.7692C32.615 16.2014 32.7481 15.5174 32.6253 14.8553C32.5258 14.3227 32.2675 13.8325 31.8844 13.4493C31.5013 13.0661 31.0113 12.8077 30.4787 12.708Z" fill="white"/>
<path d="M29.9997 21.3333C30.3679 21.3333 30.6663 21.0349 30.6663 20.6667C30.6663 20.2985 30.3679 20 29.9997 20C29.6315 20 29.333 20.2985 29.333 20.6667C29.333 21.0349 29.6315 21.3333 29.9997 21.3333Z" fill="white"/>
</svg>
