<svg width="60" height="60" viewBox="0 0 60 60" fill="none" xmlns="http://www.w3.org/2000/svg">
<rect width="60" height="60" rx="7" fill="#00954D"/>
<path d="M34.9659 30.3369L37.2378 28.065C37.4031 28.6835 37.5 29.33 37.5 30C37.5 34.1357 34.1356 37.5 30 37.5C29.33 37.5 28.6834 37.4031 28.065 37.2378L30.3369 34.966C32.8209 34.7966 34.7966 32.821 34.9659 30.3369ZM49.8425 29.3929C49.6888 29.1163 47.5081 25.2954 43.2456 22.0572L41.4266 23.8763C44.5347 26.1616 46.5041 28.8269 47.2794 30.0019C45.7978 32.2578 39.9859 40 30 40C28.5025 40 27.11 39.8085 25.7997 39.5028L23.7456 41.5569C25.6341 42.1359 27.7097 42.5 30 42.5C43.0853 42.5 49.5728 31.0925 49.8425 30.6072C50.0525 30.2294 50.0525 29.7707 49.8425 29.3929ZM44.6338 17.1338L17.1337 44.6338C16.8897 44.8778 16.5697 45 16.25 45C15.9303 45 15.6103 44.8778 15.3663 44.6338C14.8778 44.1453 14.8778 43.3544 15.3663 42.8663L18.865 39.3675C13.2087 35.9528 10.3347 30.9263 10.1575 30.6072C9.9475 30.2294 9.9475 29.7704 10.1575 29.3925C10.4272 28.9075 16.9147 17.5001 30 17.5001C33.3834 17.5001 36.3141 18.2719 38.8194 19.4132L42.8662 15.3663C43.3547 14.8779 44.1456 14.8779 44.6338 15.3663C45.1219 15.8548 45.1222 16.6457 44.6338 17.1338ZM20.7291 37.5035L23.8937 34.3388C23.0197 33.1125 22.5 31.6172 22.5 30C22.5 25.8644 25.8644 22.5001 30 22.5001C31.6172 22.5001 33.1125 23.0197 34.3388 23.8935L36.8978 21.3344C34.8759 20.5248 32.5784 20.0001 30 20.0001C20.0141 20.0001 14.2022 27.7422 12.7209 29.9982C13.6616 31.4238 16.3653 35.0325 20.7291 37.5035ZM25.7084 32.5238L32.5237 25.7085C31.7803 25.2694 30.9244 25.0001 30 25.0001C27.2431 25.0001 25 27.2432 25 30C25 30.9244 25.2694 31.7803 25.7084 32.5238Z" fill="white"/>
</svg>
