<svg width="60" height="60" viewBox="0 0 60 60" fill="none" xmlns="http://www.w3.org/2000/svg">
<rect width="60" height="60" rx="7" fill="#00954D"/>
<path d="M43.5872 37.5855C43.3023 37.3006 42.8408 37.3006 42.5559 37.5855L39.4092 40.7322L36.2625 37.5855C35.9776 37.3006 35.5162 37.3006 35.2313 37.5855C34.9463 37.8704 34.9463 38.3323 35.2313 38.6168L38.378 41.7635L35.2313 44.9102C34.9463 45.1946 34.9463 45.6565 35.2313 45.9414C35.3737 46.0839 35.5604 46.1549 35.7471 46.1549C35.9338 46.1549 36.1205 46.0839 36.263 45.9414L39.4097 42.7947L42.5564 45.9414C42.6989 46.0839 42.8856 46.1549 43.0723 46.1549C43.259 46.1549 43.4457 46.0839 43.5881 45.9414C43.8731 45.6565 43.8731 45.1946 43.5881 44.9102L40.4414 41.7635L43.5881 38.6168C43.8721 38.3318 43.8721 37.8704 43.5872 37.5855Z" fill="white"/>
<path d="M47.1438 29.5115C47.6961 28.9528 48 28.2133 48 27.43C48 25.8095 46.6814 24.4909 45.0609 24.4909H38.8569L33.6288 11.3926C33.1805 10.2612 31.893 9.70741 30.7543 10.1576C30.4626 10.2758 30.2093 10.4528 29.9993 10.6672C29.7883 10.4523 29.534 10.2748 29.2398 10.1557C28.1075 9.70693 26.819 10.2617 26.3717 11.3907L21.1431 24.4909H14.9391C14.1587 24.4909 13.4212 24.7948 12.8562 25.353C12.3039 25.9116 12 26.6497 12 27.4295C12 28.6849 12.7901 29.756 13.8967 30.1785L16.9374 45.8411C17.2243 47.3294 18.5336 48.4088 20.0506 48.4088H33.9725C35.4545 49.6228 37.3473 50.3536 39.4083 50.3536C44.1454 50.3536 47.9995 46.4994 47.9995 41.7624C47.9995 39.2093 46.874 36.9198 45.1008 35.3449L46.1023 30.1805C46.4855 30.0356 46.8399 29.8115 47.1438 29.5115ZM39.4399 25.9495H45.0609C45.8772 25.9495 46.5414 26.6137 46.5414 27.43C46.5414 28.2352 45.8743 28.91 45.0755 28.9139H39.4637C39.9217 28.2833 40.052 27.4859 39.7598 26.7542L39.4399 25.9495ZM24.3452 28.3937L25.3205 25.9495H34.68L35.6553 28.3937C35.7306 28.5809 35.8323 28.7525 35.9489 28.9134H24.0515C24.1668 28.7535 24.2708 28.5789 24.3452 28.3937ZM16.2003 34.392H20.5975L21.075 37.9296H16.8873L16.2003 34.392ZM22.0693 34.392H29.2705V37.9296H22.5467L22.0693 34.392ZM29.2705 30.374V32.9339H21.8724L21.5267 30.374H29.2705ZM30.7291 34.392H34.9931C33.5986 35.2268 32.4366 36.4681 31.7209 37.9296H30.7291V34.392ZM30.7291 32.9334V30.3735H38.4728L38.1286 32.9334H30.7291ZM20.0549 30.374L20.4006 32.9339H16.0943C16.0345 32.9339 15.9776 32.9431 15.9217 32.9567L15.4204 30.3745L20.0549 30.374ZM17.1703 39.3887H21.2714L21.7498 42.9326H17.8583L17.1703 39.3887ZM22.7436 39.3887H29.2705V42.9326H23.2221L22.7436 39.3887ZM30.7291 39.3887H31.1579C30.9372 40.1661 30.8166 40.9387 30.8166 41.7633C30.8166 42.1596 30.8458 42.5447 30.8987 42.9326H30.7291V39.3887ZM44.0783 32.9562C44.0224 32.9426 43.965 32.9334 43.9052 32.9334H39.5999L39.9441 30.3735H44.5791L44.0783 32.9562ZM31.2969 11.5117C31.6728 11.3595 32.1191 11.5409 32.2737 11.9318L38.4043 27.2924C38.5565 27.6731 38.3654 28.1146 37.9823 28.2697C37.605 28.4224 37.1577 28.2323 37.0098 27.854L30.8769 12.4832C30.7227 12.1059 30.9226 11.6629 31.2969 11.5117ZM29.9998 14.2208L34.0975 24.4909H25.902L29.9998 14.2208ZM27.7268 11.9299C27.8799 11.5419 28.3243 11.3576 28.6977 11.5093C29.0803 11.6649 29.2763 12.1039 29.1217 12.4866L22.9902 27.8535C22.8399 28.2332 22.3936 28.4209 22.0134 28.2682C21.6346 28.1156 21.4431 27.6717 21.5952 27.2934L27.7268 11.9299ZM14.9386 25.9495H20.5596L20.2392 26.7547C19.947 27.4859 20.0773 28.2843 20.5358 28.9134H14.925C14.115 28.9057 13.4586 28.2439 13.4586 27.4295C13.4586 26.621 14.1359 25.9457 14.9386 25.9495ZM18.3693 45.5645L18.1417 44.3913H21.9468L22.292 46.9511H20.0506C19.2313 46.9506 18.5239 46.3682 18.3693 45.5645ZM23.419 44.3913H29.2705V46.9511H23.7647L23.419 44.3913ZM30.7291 46.9506V44.3908H31.2318C31.5308 45.3087 31.9864 46.1781 32.5601 46.9506H30.7291ZM46.5409 41.7633C46.5409 45.6962 43.3412 48.8959 39.4083 48.8959C35.472 48.8959 32.2762 45.6121 32.2762 41.7638C32.2762 37.8873 35.5435 34.6312 39.4083 34.6312C43.2474 34.6312 46.5409 37.8105 46.5409 41.7633Z" fill="white"/>
</svg>
