<svg width="60" height="60" viewBox="0 0 60 60" fill="none" xmlns="http://www.w3.org/2000/svg">
<rect width="60" height="60" rx="7" fill="white"/>
<path d="M50.8968 22.5226C48.9355 20.5613 46.3613 21.8484 45.6871 22.5226L42.1935 26.0161V19.3355L33.8581 11H16.4516V13.4516H14V49H39.7419V46.5484H42.1935V36.4355L50.8968 27.7323C52.3677 26.2613 52.3677 23.9323 50.8968 22.5226ZM31.4065 39.3774L34.0419 42.0129L30.8548 42.5645L31.4065 39.3774ZM35.329 41.5839L31.8355 38.0903L46.1774 23.8097L49.671 27.3032L35.329 41.5839ZM50.0387 23.3806C50.8355 24.1774 50.9581 25.4032 50.4065 26.3226L47.0355 22.9516C47.4645 22.7677 48.8129 22.1548 50.0387 23.3806ZM34.2258 13.0839L40.1097 18.9677H34.2258V13.0839ZM38.5161 47.7742H15.2258V14.6774H16.4516V46.5484H38.5161V47.7742ZM40.9677 45.3226H17.6774V12.2258H33V20.1935H40.9677V27.2419L30.4258 37.7839L29.3839 44.0355L35.6355 42.9935L40.9677 37.6613V45.3226Z" fill="#00954D"/>
<path d="M42.251 30.2964L47.0175 25.5298L47.8842 26.3965L43.1176 31.163L42.251 30.2964Z" fill="#00954D"/>
<path d="M20.1289 14.6772H30.5483V15.9031H20.1289V14.6772Z" fill="#00954D"/>
<path d="M20.1289 18.9675H30.5483V20.1933H20.1289V18.9675Z" fill="#00954D"/>
<path d="M20.1289 42.8711H21.3547V44.0969H20.1289V42.8711Z" fill="#00954D"/>
<path d="M22.5801 42.8711H23.8059V44.0969H22.5801V42.8711Z" fill="#00954D"/>
<path d="M25.0322 42.8711H26.258V44.0969H25.0322V42.8711Z" fill="#00954D"/>
<path d="M20.1289 23.2578H37.2902V24.4836H20.1289V23.2578Z" fill="#00954D"/>
<path d="M20.1289 27.5483H37.2902V28.7741H20.1289V27.5483Z" fill="#00954D"/>
</svg>
