<svg width="60" height="60" viewBox="0 0 60 60" fill="none" xmlns="http://www.w3.org/2000/svg">
<rect width="60" height="60" rx="7" fill="#00954D"/>
<path fill-rule="evenodd" clip-rule="evenodd" d="M48.1421 25.9539H20.1554L47.0369 18.1667C47.2459 18.1061 47.4221 17.9648 47.5272 17.7745C47.6323 17.5838 47.6573 17.3595 47.5967 17.1506L46.19 12.2944C45.628 10.3548 43.822 9 41.7982 9C41.3717 9 40.9468 9.06056 40.5347 9.17976L15.2957 16.4911C14.1283 16.8292 13.1609 17.6053 12.571 18.6758C11.9814 19.7464 11.843 20.9791 12.181 22.1461L13.5554 26.8905V46.4348C13.5554 48.9521 15.6033 51 18.1203 51H27.9775C28.4306 51 28.7978 50.6328 28.7978 50.1797C28.7978 49.7266 28.4306 49.3594 27.9775 49.3594H18.1206C16.5079 49.3594 15.196 48.0475 15.196 46.4348V35.2715H19.3985H19.4004H19.402H25.8261H25.828H25.8299H32.254H32.2559H32.2579H38.6819H38.6839H38.6855H47.3218V46.4348C47.3218 48.0475 46.01 49.3594 44.3972 49.3594H34.54C34.0872 49.3594 33.7197 49.7266 33.7197 50.1797C33.7197 50.6328 34.0872 51 34.54 51H44.3972C46.9145 51 48.9624 48.9521 48.9624 46.4348V26.7742C48.9624 26.3211 48.5952 25.9539 48.1421 25.9539ZM33.6774 33.6308L37.1628 27.5945H41.6959L38.2109 33.6308H33.6774ZM27.2495 33.6308L30.7348 27.5945H35.268L31.783 33.6308H27.2495ZM20.8219 33.6308L24.3069 27.5945H28.8404L25.3551 33.6308H20.8219ZM23.8718 23.0113L18.0354 17.4056L22.4083 16.139C22.4391 16.1838 22.475 16.2261 22.516 16.2655L28.3524 21.8712L23.9794 23.1379C23.9487 23.093 23.9125 23.0504 23.8718 23.0113ZM34.864 12.6885L40.7003 18.2942L36.3274 19.5609C36.2966 19.516 36.2607 19.4734 36.2197 19.4343L30.3833 13.8286L34.7563 12.562C34.7871 12.6068 34.8229 12.6491 34.864 12.6885ZM28.6898 14.4772L34.5262 20.0826L30.1532 21.3495C30.1225 21.3047 30.0866 21.2621 30.0456 21.223L24.2092 15.6173L28.5822 14.3506C28.6132 14.3952 28.6491 14.4378 28.6898 14.4772ZM40.9913 10.7557C41.2547 10.6794 41.5261 10.6406 41.7982 10.6406C43.0962 10.6406 44.254 11.5084 44.6141 12.751L45.7927 16.8189L42.5015 17.7722C42.4704 17.7274 42.4345 17.6851 42.3935 17.6456L36.5575 12.0403L40.9913 10.7557ZM14.0081 19.4673C14.3863 18.7806 15.0057 18.2833 15.7523 18.067L16.2342 17.9273C16.2653 17.9722 16.3012 18.0148 16.3419 18.0539L22.1783 23.6596L14.9355 25.7578L13.7569 21.6898C13.5406 20.9436 13.63 20.1543 14.0081 19.4673ZM15.196 27.5945H22.4125L18.9275 33.6308H15.196V27.5945ZM40.1053 33.6308L43.5904 27.5945H47.3218V33.6308H40.1053Z" fill="white"/>
<path fill-rule="evenodd" clip-rule="evenodd" d="M36.9315 42.2318C36.9315 41.9386 36.7751 41.6678 36.5213 41.5214L29.3145 37.3606C29.0607 37.2141 28.7479 37.2141 28.4941 37.3606C28.2404 37.507 28.084 37.7778 28.084 38.071V46.3927C28.084 46.6855 28.2404 46.9563 28.4941 47.1027C28.621 47.1761 28.7627 47.213 28.9043 47.213C29.0459 47.213 29.1876 47.1761 29.3145 47.1027L36.5213 42.9422C36.7751 42.7958 36.9315 42.525 36.9315 42.2318ZM29.7246 44.9718V39.4918L34.4706 42.2318L29.7246 44.9718Z" fill="white"/>
<path fill-rule="evenodd" clip-rule="evenodd" d="M31.2588 49.3594C30.807 49.3594 30.4385 49.7279 30.4385 50.1797C30.4385 50.6315 30.807 51 31.2588 51C31.7109 51 32.0791 50.6315 32.0791 50.1797C32.0791 49.7279 31.7109 49.3594 31.2588 49.3594Z" fill="white"/>
</svg>
