<svg width="40" height="40" viewBox="0 0 40 40" fill="none" xmlns="http://www.w3.org/2000/svg">
<rect width="40" height="40" rx="20" fill="#F4F4F4"/>
<path d="M30.2857 21.7143H21.7143V30.2857C21.7143 30.7404 21.5337 31.1764 21.2122 31.4979C20.8907 31.8194 20.4547 32 20 32C19.5453 32 19.1093 31.8194 18.7878 31.4979C18.4663 31.1764 18.2857 30.7404 18.2857 30.2857V21.7143H9.71429C9.25963 21.7143 8.82359 21.5337 8.5021 21.2122C8.18061 20.8907 8 20.4547 8 20C8 19.5453 8.18061 19.1093 8.5021 18.7878C8.82359 18.4663 9.25963 18.2857 9.71429 18.2857H18.2857V9.71429C18.2857 9.25963 18.4663 8.82359 18.7878 8.5021C19.1093 8.18061 19.5453 8 20 8C20.4547 8 20.8907 8.18061 21.2122 8.5021C21.5337 8.82359 21.7143 9.25963 21.7143 9.71429V18.2857H30.2857C30.7404 18.2857 31.1764 18.4663 31.4979 18.7878C31.8194 19.1093 32 19.5453 32 20C32 20.4547 31.8194 20.8907 31.4979 21.2122C31.1764 21.5337 30.7404 21.7143 30.2857 21.7143Z" fill="#6B6B6B"/>
</svg>
