<svg width="36" height="36" viewBox="0 0 36 36" fill="none" xmlns="http://www.w3.org/2000/svg">
<circle cx="18" cy="18" r="18" fill="white"/>
<path d="M28 12C28 10.9 27.1 10 26 10H10C8.9 10 8 10.9 8 12V24C8 25.1 8.9 26 10 26H26C27.1 26 28 25.1 28 24V12ZM26 12L18 17L10 12H26ZM26 24H10V14L18 19L26 14V24Z" fill="white"/>
<path d="M28 12C28 10.9 27.1 10 26 10H10C8.9 10 8 10.9 8 12V24C8 25.1 8.9 26 10 26H26C27.1 26 28 25.1 28 24V12ZM26 12L18 17L10 12H26ZM26 24H10V14L18 19L26 14V24Z" fill="url(#paint0_linear_274_812)"/>
<defs>
<linearGradient id="paint0_linear_274_812" x1="8" y1="10" x2="23.6098" y2="29.5122" gradientUnits="userSpaceOnUse">
<stop stop-color="#F84437"/>
<stop offset="1" stop-color="#DD2315"/>
</linearGradient>
</defs>
</svg>
