<svg width="36" height="36" viewBox="0 0 36 36" fill="none" xmlns="http://www.w3.org/2000/svg">
<circle cx="18" cy="18" r="18" fill="#D9D9D9"/>
<circle cx="18" cy="18" r="18" fill="url(#paint0_linear_48_5009)"/>
<path d="M14.7148 12.3514C14.529 12.3244 14.3395 12.3618 14.1778 12.4574H14.1638C13.7888 12.6774 13.4508 12.9544 13.1628 13.2804C12.9228 13.5574 12.7928 13.8374 12.7588 14.1074C12.7388 14.2674 12.7528 14.4294 12.7998 14.5824L12.8178 14.5924C13.0878 15.3854 13.4398 16.1484 13.8698 16.8664C14.4243 17.8749 15.1066 18.8076 15.8998 19.6414L15.9238 19.6754L15.9618 19.7034L15.9848 19.7304L16.0128 19.7544C16.8496 20.55 17.7845 21.2356 18.7948 21.7944C19.9498 22.4234 20.6508 22.7204 21.0718 22.8444V22.8504C21.1948 22.8884 21.3068 22.9054 21.4198 22.9054C21.7784 22.8789 22.1178 22.7332 22.3838 22.4914C22.7088 22.2034 22.9838 21.8644 23.1978 21.4874V21.4804C23.3988 21.1004 23.3308 20.7424 23.0408 20.4994C22.4583 19.9904 21.8285 19.5384 21.1598 19.1494C20.7118 18.9064 20.2568 19.0534 20.0728 19.2994L19.6798 19.7954C19.4778 20.0414 19.1118 20.0074 19.1118 20.0074L19.1018 20.0134C16.3708 19.3164 15.6418 16.5514 15.6418 16.5514C15.6418 16.5514 15.6078 16.1754 15.8608 15.9834L16.3528 15.5874C16.5888 15.3954 16.7528 14.9414 16.4998 14.4934C16.1135 13.8242 15.6623 13.1945 15.1528 12.6134C15.0417 12.4767 14.8859 12.3835 14.7128 12.3504L14.7148 12.3514ZM19.3298 11.1494C19.1972 11.1494 19.0701 11.2021 18.9763 11.2959C18.8825 11.3896 18.8298 11.5168 18.8298 11.6494C18.8298 11.782 18.8825 11.9092 18.9763 12.003C19.0701 12.0967 19.1972 12.1494 19.3298 12.1494C20.5938 12.1494 21.6438 12.5624 22.4748 13.3544C22.9018 13.7874 23.2348 14.3004 23.4528 14.8624C23.6718 15.4254 23.7718 16.0264 23.7458 16.6284C23.7403 16.761 23.7876 16.8904 23.8774 16.9881C23.9673 17.0858 24.0922 17.1438 24.2248 17.1494C24.3575 17.155 24.4868 17.1076 24.5846 17.0178C24.6823 16.928 24.7403 16.803 24.7458 16.6704C24.7769 15.9299 24.6539 15.191 24.3848 14.5004C24.1146 13.8065 23.7048 13.1755 23.1808 12.6464L23.1708 12.6364C22.1398 11.6514 20.8358 11.1494 19.3298 11.1494Z" fill="white"/>
<path d="M19.2949 12.7935C19.1623 12.7935 19.0351 12.8462 18.9414 12.9399C18.8476 13.0337 18.7949 13.1609 18.7949 13.2935C18.7949 13.4261 18.8476 13.5533 18.9414 13.647C19.0351 13.7408 19.1623 13.7935 19.2949 13.7935H19.3119C20.2239 13.8585 20.8879 14.1625 21.3529 14.6615C21.8299 15.1755 22.0769 15.8145 22.0579 16.6045C22.0549 16.7371 22.1046 16.8655 22.1962 16.9614C22.2878 17.0573 22.4138 17.1129 22.5464 17.116C22.679 17.119 22.8074 17.0693 22.9033 16.9777C22.9993 16.8861 23.0549 16.7601 23.0579 16.6275C23.0819 15.5905 22.7479 14.6955 22.0859 13.9815V13.9795C21.4089 13.2535 20.4799 12.8695 19.3619 12.7945L19.3449 12.7925L19.2949 12.7935Z" fill="white"/>
<path d="M19.2744 14.4682C19.2075 14.4623 19.1401 14.47 19.0762 14.4907C19.0123 14.5114 18.9532 14.5448 18.9025 14.5889C18.8518 14.6329 18.8105 14.6868 18.7811 14.7471C18.7516 14.8075 18.7346 14.8732 18.7311 14.9403C18.7277 15.0074 18.7377 15.0745 18.7607 15.1376C18.7837 15.2007 18.8192 15.2585 18.8651 15.3076C18.9109 15.3567 18.9662 15.396 19.0276 15.4233C19.089 15.4506 19.1553 15.4652 19.2224 15.4662C19.6404 15.4882 19.9074 15.6142 20.0754 15.7832C20.2444 15.9532 20.3704 16.2262 20.3934 16.6532C20.3947 16.7203 20.4094 16.7865 20.4368 16.8478C20.4641 16.9091 20.5035 16.9642 20.5527 17.0099C20.6018 17.0557 20.6596 17.091 20.7227 17.1139C20.7858 17.1368 20.8528 17.1468 20.9198 17.1432C20.9869 17.1397 21.0525 17.1227 21.1128 17.0932C21.1731 17.0638 21.2268 17.0225 21.2708 16.9718C21.3148 16.9211 21.3482 16.8621 21.3689 16.7983C21.3896 16.7344 21.3973 16.6671 21.3914 16.6002C21.3594 16.0002 21.1714 15.4702 20.7864 15.0802C20.3994 14.6902 19.8724 14.5002 19.2744 14.4682Z" fill="white"/>
<path fill-rule="evenodd" clip-rule="evenodd" d="M13.8168 8.53347C16.9989 7.82218 20.2987 7.82218 23.4808 8.53347L23.8198 8.60847C24.75 8.81642 25.6043 9.2782 26.2879 9.94249C26.9714 10.6068 27.4574 11.4476 27.6918 12.3715C28.4995 15.5544 28.4995 18.8886 27.6918 22.0715C27.4574 22.9954 26.9714 23.8362 26.2879 24.5004C25.6043 25.1647 24.75 25.6265 23.8198 25.8345L23.4798 25.9095C21.4868 26.3552 19.4418 26.5231 17.4028 26.4085L14.7498 28.7825C14.6498 28.872 14.5276 28.9331 14.3959 28.9593C14.2642 28.9855 14.1279 28.9759 14.0013 28.9314C13.8746 28.887 13.7621 28.8094 13.6757 28.7066C13.5893 28.6039 13.532 28.4799 13.5098 28.3475L13.0708 25.7255C12.229 25.4635 11.4684 24.9901 10.8618 24.3504C10.2551 23.7106 9.82271 22.926 9.60581 22.0715C8.79806 18.8886 8.79806 15.5544 9.60581 12.3715C9.84023 11.4476 10.3262 10.6068 11.0097 9.94249C11.6933 9.2782 12.5476 8.81642 13.4778 8.60847L13.8168 8.53347ZM23.1538 9.99647C20.1871 9.33328 17.1105 9.33328 14.1438 9.99647L13.8038 10.0725C13.1445 10.2201 12.5391 10.5476 12.0547 11.0186C11.5703 11.4896 11.2259 12.0856 11.0598 12.7405C10.3135 15.6812 10.3135 18.7617 11.0598 21.7025C11.226 22.3575 11.5705 22.9536 12.0551 23.4246C12.5397 23.8956 13.1453 24.223 13.8048 24.3705L13.8948 24.3905C14.0404 24.423 14.173 24.4983 14.2756 24.6066C14.3782 24.7149 14.4462 24.8513 14.4708 24.9985L14.7648 26.7565L16.6368 25.0815C16.7116 25.0144 16.799 24.963 16.894 24.9304C16.989 24.8977 17.0896 24.8845 17.1898 24.8915C19.1889 25.0333 21.1979 24.8834 23.1538 24.4465L23.4928 24.3705C24.1523 24.223 24.7579 23.8956 25.2425 23.4246C25.7271 22.9536 26.0716 22.3575 26.2378 21.7025C26.9838 18.7625 26.9838 15.6815 26.2378 12.7405C26.0716 12.0855 25.7271 11.4894 25.2425 11.0184C24.7579 10.5474 24.1523 10.22 23.4928 10.0725L23.1538 9.99647Z" fill="white"/>
<defs>
<linearGradient id="paint0_linear_48_5009" x1="0" y1="0" x2="36" y2="36" gradientUnits="userSpaceOnUse">
<stop stop-color="#A398F7"/>
<stop offset="1" stop-color="#7866F2"/>
</linearGradient>
</defs>
</svg>
