<svg width="36" height="36" viewBox="0 0 36 36" fill="none" xmlns="http://www.w3.org/2000/svg">
<circle cx="18" cy="18" r="18" fill="white"/>
<path d="M26 9.91006C25.0832 8.98399 23.9912 8.24973 22.7876 7.75011C21.5841 7.25049 20.2931 6.99552 18.99 7.00006C13.53 7.00006 9.08 11.4501 9.08 16.9101C9.08 18.6601 9.54 20.3601 10.4 21.8601L9 27.0001L14.25 25.6201C15.7 26.4101 17.33 26.8301 18.99 26.8301C24.45 26.8301 28.9 22.3801 28.9 16.9201C28.9 14.2701 27.87 11.7801 26 9.91006ZM18.99 25.1501C17.51 25.1501 16.06 24.7501 14.79 24.0001L14.49 23.8201L11.37 24.6401L12.2 21.6001L12 21.2901C11.1777 19.977 10.7411 18.4593 10.74 16.9101C10.74 12.3701 14.44 8.67006 18.98 8.67006C21.18 8.67006 23.25 9.53006 24.8 11.0901C25.5675 11.854 26.1757 12.7627 26.5894 13.7635C27.0031 14.7642 27.214 15.8372 27.21 16.9201C27.23 21.4601 23.53 25.1501 18.99 25.1501ZM23.51 18.9901C23.26 18.8701 22.04 18.2701 21.82 18.1801C21.59 18.1001 21.43 18.0601 21.26 18.3001C21.09 18.5501 20.62 19.1101 20.48 19.2701C20.34 19.4401 20.19 19.4601 19.94 19.3301C19.69 19.2101 18.89 18.9401 17.95 18.1001C17.21 17.4401 16.72 16.6301 16.57 16.3801C16.43 16.1301 16.55 16.0001 16.68 15.8701C16.79 15.7601 16.93 15.5801 17.05 15.4401C17.17 15.3001 17.22 15.1901 17.3 15.0301C17.38 14.8601 17.34 14.7201 17.28 14.6001C17.22 14.4801 16.72 13.2601 16.52 12.7601C16.32 12.2801 16.11 12.3401 15.96 12.3301H15.48C15.31 12.3301 15.05 12.3901 14.82 12.6401C14.6 12.8901 13.96 13.4901 13.96 14.7101C13.96 15.9301 14.85 17.1101 14.97 17.2701C15.09 17.4401 16.72 19.9401 19.2 21.0101C19.79 21.2701 20.25 21.4201 20.61 21.5301C21.2 21.7201 21.74 21.6901 22.17 21.6301C22.65 21.5601 23.64 21.0301 23.84 20.4501C24.05 19.8701 24.05 19.3801 23.98 19.2701C23.91 19.1601 23.76 19.1101 23.51 18.9901Z" fill="white"/>
<path d="M26 9.91006C25.0832 8.98399 23.9912 8.24973 22.7876 7.75011C21.5841 7.25049 20.2931 6.99552 18.99 7.00006C13.53 7.00006 9.08 11.4501 9.08 16.9101C9.08 18.6601 9.54 20.3601 10.4 21.8601L9 27.0001L14.25 25.6201C15.7 26.4101 17.33 26.8301 18.99 26.8301C24.45 26.8301 28.9 22.3801 28.9 16.9201C28.9 14.2701 27.87 11.7801 26 9.91006ZM18.99 25.1501C17.51 25.1501 16.06 24.7501 14.79 24.0001L14.49 23.8201L11.37 24.6401L12.2 21.6001L12 21.2901C11.1777 19.977 10.7411 18.4593 10.74 16.9101C10.74 12.3701 14.44 8.67006 18.98 8.67006C21.18 8.67006 23.25 9.53006 24.8 11.0901C25.5675 11.854 26.1757 12.7627 26.5894 13.7635C27.0031 14.7642 27.214 15.8372 27.21 16.9201C27.23 21.4601 23.53 25.1501 18.99 25.1501ZM23.51 18.9901C23.26 18.8701 22.04 18.2701 21.82 18.1801C21.59 18.1001 21.43 18.0601 21.26 18.3001C21.09 18.5501 20.62 19.1101 20.48 19.2701C20.34 19.4401 20.19 19.4601 19.94 19.3301C19.69 19.2101 18.89 18.9401 17.95 18.1001C17.21 17.4401 16.72 16.6301 16.57 16.3801C16.43 16.1301 16.55 16.0001 16.68 15.8701C16.79 15.7601 16.93 15.5801 17.05 15.4401C17.17 15.3001 17.22 15.1901 17.3 15.0301C17.38 14.8601 17.34 14.7201 17.28 14.6001C17.22 14.4801 16.72 13.2601 16.52 12.7601C16.32 12.2801 16.11 12.3401 15.96 12.3301H15.48C15.31 12.3301 15.05 12.3901 14.82 12.6401C14.6 12.8901 13.96 13.4901 13.96 14.7101C13.96 15.9301 14.85 17.1101 14.97 17.2701C15.09 17.4401 16.72 19.9401 19.2 21.0101C19.79 21.2701 20.25 21.4201 20.61 21.5301C21.2 21.7201 21.74 21.6901 22.17 21.6301C22.65 21.5601 23.64 21.0301 23.84 20.4501C24.05 19.8701 24.05 19.3801 23.98 19.2701C23.91 19.1601 23.76 19.1101 23.51 18.9901Z" fill="url(#paint0_linear_274_787)"/>
<defs>
<linearGradient id="paint0_linear_274_787" x1="9" y1="7" x2="28.9998" y2="26.8998" gradientUnits="userSpaceOnUse">
<stop stop-color="#5AD165"/>
<stop offset="1" stop-color="#2AB53F"/>
</linearGradient>
</defs>
</svg>
