<svg width="32" height="24" viewBox="0 0 32 24" fill="none" xmlns="http://www.w3.org/2000/svg">
<path d="M10.5184 21.1637C10.5011 21.3361 10.516 21.5161 10.5788 21.6945C10.7322 22.1245 11.0922 22.4748 11.5187 22.6069C11.9149 22.7321 12.3091 22.6488 12.4287 22.5187L13.2554 21.6316C13.4945 21.376 13.5549 20.9672 13.4144 20.5706C13.0685 19.9078 12.6051 19.6686 12.0115 19.5615L10.5184 21.1637Z" fill="#212121"/>
<path d="M9.41313 16.7285L7.96835 18.2779C7.67481 18.5973 7.59065 19.0881 7.75454 19.5584C7.92849 20.0553 8.34364 20.4596 8.84054 20.6106C9.31085 20.7515 9.78278 20.642 10.0783 20.3275L11.416 18.8928C11.7116 18.5743 11.7937 18.0859 11.6298 17.6156C11.4559 17.1162 11.0383 16.7136 10.5438 16.5634C10.1492 16.4373 9.68614 16.4325 9.41313 16.7285Z" fill="#212121"/>
<path d="M6.54982 14.1784L5.21578 15.6107C4.92183 15.9276 4.83968 16.4201 5.00196 16.892C5.17591 17.3873 5.59107 17.7916 6.08796 17.9426C6.55747 18.0855 7.03423 17.974 7.18282 17.8165L8.66384 16.2272C8.95939 15.9079 9.04154 15.417 8.87765 14.9475C8.70289 14.449 8.28774 14.0463 7.79085 13.8969C7.33382 13.748 6.82807 13.8804 6.54982 14.1784Z" fill="#212121"/>
<path d="M3.9396 11.3555L2.461 12.9456C2.16544 13.2641 2.0833 13.7526 2.24719 14.2205C2.41953 14.7214 2.8371 15.1241 3.33399 15.2751C3.8035 15.4152 4.27946 15.3065 4.42643 15.147L5.90906 13.5577V13.5561C6.20462 13.2416 6.28676 12.7523 6.12288 12.2828C5.95134 11.7819 5.53377 11.3792 5.03688 11.2299C4.65716 11.099 4.19772 11.0764 3.9396 11.3555Z" fill="#212121"/>
<path d="M23.1346 1.87183C22.1782 2.40657 20.849 2.50241 19.5545 2.59542C18.5752 2.66227 17.5649 2.73314 16.8389 3.00131L12.8021 4.49079C12.7747 4.50166 12.7469 4.5081 12.7179 4.51213C12.523 4.54273 12.3426 4.56891 12.1808 4.59146C11.1979 4.72997 11.0843 4.77225 10.9712 5.06338C10.8681 5.33237 10.9812 5.72014 11.2607 6.04952C11.4886 6.32011 12.3805 7.16492 14.2155 6.73044L16.5143 6.42682C17.8016 6.26092 18.8337 7.10009 19.6579 7.77738L25.8401 12.723L25.845 12.7205C27.0671 12.2092 28.3403 11.5439 29.4227 10.2401L23.1346 1.87183Z" fill="#212121"/>
<path d="M14.6289 1.57121C14.2625 1.60503 13.8425 1.65134 13.402 1.69724C10.9654 1.95737 9.61445 2.05964 8.9271 1.9324L2.60156 10.1658C2.83431 10.386 3.02718 10.6148 3.18261 10.8624C3.71132 10.3212 4.51022 10.1279 5.28817 10.3631C6.05163 10.5934 6.68906 11.2123 6.95563 11.9802C7.06878 12.3052 7.10421 12.6386 7.07522 12.9579C7.38729 12.914 7.71707 12.9321 8.04163 13.0312C8.80307 13.2599 9.44291 13.8804 9.70747 14.6483C9.82223 14.9716 9.85847 15.3042 9.83109 15.6236C10.1432 15.5797 10.4729 15.5982 10.7975 15.6993C11.5573 15.9296 12.1944 16.5485 12.4609 17.3124C12.6284 17.7968 12.6349 18.2953 12.4988 18.7422C12.5765 18.7571 12.6562 18.7761 12.7355 18.801C13.4173 19.0124 13.9963 19.5725 14.2456 20.2631C14.4831 20.9316 14.38 21.6338 13.9899 22.1379L15.1121 23.0355C15.3867 23.2533 15.787 23.2771 16.1606 23.0959C16.5657 22.8994 16.8718 22.5003 16.962 22.0538C16.9998 21.8674 16.9873 21.6866 16.9446 21.519L15.5212 20.3803C15.3299 20.2269 15.2961 19.9438 15.4455 19.7473C15.5965 19.5524 15.8735 19.5162 16.066 19.6696L17.7774 21.0411C17.9473 21.1772 18.4341 21.2134 18.8807 21.0032C19.3502 20.7789 19.7049 20.3167 19.8032 19.8009C19.8974 19.3132 19.7464 18.8405 19.4106 18.5699L17.8627 17.3313C17.6699 17.1779 17.636 16.894 17.787 16.6999C17.9364 16.5026 18.2151 16.4663 18.4059 16.6222L20.656 18.4217C20.9943 18.6907 21.4803 18.7277 21.9293 18.5184C22.3948 18.2957 22.7495 17.8342 22.8502 17.3128C22.9444 16.8251 22.7934 16.354 22.454 16.081L20.203 14.2839C20.0102 14.1289 19.9763 13.8458 20.1273 13.6477C20.2783 13.4536 20.5554 13.4198 20.7487 13.5728C20.7487 13.5728 24.1665 16.3057 24.1689 16.3057C24.3389 16.4394 24.8233 16.4772 25.2678 16.2646C25.7381 16.0452 26.0905 15.5837 26.1928 15.0639C26.2854 14.5754 26.1344 14.1011 25.7965 13.8329L19.107 8.4794C18.3395 7.85003 17.5466 7.19811 16.6257 7.32173L14.3732 7.61567C12.8547 7.98049 11.4224 7.6197 10.5941 6.64041C10.0948 6.0505 9.92491 5.32086 10.1492 4.73417C10.4637 3.92038 11.0661 3.83622 12.0603 3.69609C12.2089 3.67717 12.3687 3.65381 12.5447 3.62603L16.54 2.15226C16.7997 2.05562 17.0872 1.98877 17.3848 1.92958C16.3576 1.53215 15.613 1.50839 14.6289 1.57121Z" fill="#212121"/>
<path d="M5.9468 0.0110967C5.21918 -0.044069 4.55478 0.504366 3.59844 1.74982L1.15262 4.93574C0.267957 6.08496 -0.0634397 6.7997 0.0098461 7.40531C0.0686358 7.90301 0.414932 8.39145 0.758409 8.66688L1.9185 9.59342L8.21826 1.39386L7.40286 0.741136C6.84234 0.294173 6.3833 0.044921 5.9468 0.0110967Z" fill="#212121"/>
<path d="M26.1481 0.00269834C25.7117 0.0300799 25.2486 0.274098 24.6836 0.714618L23.8594 1.35406L30.0718 9.62046L30.8747 8.99592C31.5693 8.45715 31.9236 7.97515 31.9885 7.47785C32.0686 6.87385 31.7477 6.15347 30.8771 4.98936L28.4711 1.77283C27.5337 0.514492 26.8778 -0.0440113 26.1481 0.00269834Z" fill="#212121"/>
</svg>
